<svg width="414" height="387" viewBox="0 0 414 387" fill="none" xmlns="http://www.w3.org/2000/svg">
<path d="M69.1065 102.736C69.1065 102.736 81.8071 117.153 98.3198 119.964L73.3866 132.483L41.3008 109.231L69.1065 102.736Z" fill="#43675E"/>
<path d="M73.3867 132.483C73.3867 132.483 76.8624 125.298 76.0623 119.964C76.0623 119.964 87.2896 113.386 90.2319 108.438L98.32 119.964L73.3867 132.483Z" fill="#CEEBE9"/>
<path d="M245.699 196.37C245.699 196.37 266.824 206.051 279.927 199.025L283.936 210.148C283.936 210.148 266.824 213.992 257.735 211.287C248.645 208.582 244.365 206.981 244.365 206.981L245.699 196.37Z" fill="#43675E"/>
<path d="M245.699 196.37C245.699 196.37 252.265 192.235 258.133 191.988C258.133 191.988 256.261 199.007 259.606 203.1C259.606 203.1 248.116 202.652 244.365 206.962L245.699 196.37Z" fill="#CEEBE9"/>
<path d="M95.7012 166.175C95.7012 166.175 95.7012 162.571 99.9771 161.088C104.253 159.604 106.235 158.072 107.117 156.118C108 154.164 107.117 152.161 107.117 152.161L110.671 152.586C110.671 152.586 110.261 158.739 107.117 160.409C103.974 162.078 99.1769 164.343 98.6393 166.175L98.1059 168.011L95.7012 166.175Z" fill="#6FC29F"/>
<path d="M271.102 159.605V166.175L275.829 163.542C275.829 163.542 275.382 158.884 271.102 159.605Z" fill="#43675E"/>
<path d="M272.977 153.383C272.977 153.383 279.132 154.775 282.345 158.55L285.542 162.344L279.259 168.034C279.259 168.034 274.848 161.809 272.977 160.72L271.102 159.627L272.977 153.383Z" fill="#CEEBE9"/>
<path d="M169.054 41.0731L166.912 38.3037L163.912 39.6884L166.481 42.7651L169.054 41.0731Z" fill="#43675E"/>
<path d="M167.978 43.2583C167.978 43.2583 164.593 44.5786 162.098 43.2583C159.603 41.9381 158.766 40.4586 158.766 40.4586L161.384 38.3037C161.384 38.3037 162.274 42.0443 164.95 41.995C167.625 41.9457 169.053 41.0731 169.053 41.0731L167.978 43.2583Z" fill="#CEEBE9"/>
<path d="M235.323 64.2376L239.233 59.2716L234.953 55.3071L230.723 61.1343L235.323 64.2376Z" fill="#6FC29F"/>
<path d="M230.664 63.7938C230.664 63.7938 226.285 59.1844 227.307 54.4802C228.329 49.776 230.59 47.606 230.59 47.606L236.097 50.5233C236.097 50.5233 229.675 54.0705 231.296 58.2739C232.916 62.4774 235.338 64.2377 235.338 64.2377L230.664 63.7938Z" fill="#CEEBE9"/>
<path d="M243.602 245.563L236.695 244.008L238.337 248.875C238.337 248.875 243.372 249.581 243.602 245.563Z" fill="#CEEBE9"/>
<path d="M84.178 215.38C84.178 215.38 90.5919 236.356 105.024 240.613L98.799 250.829C98.799 250.829 84.2314 241.682 80.3084 233.628C76.3853 225.574 74.7891 221.572 74.7891 221.572L84.178 215.38Z" fill="#43675E"/>
<path d="M84.178 215.38C84.178 215.38 91.8886 217.095 96.0373 220.957C96.0373 220.957 89.1515 224.372 88.1133 229.425C88.1133 229.425 80.7556 221.245 74.7891 221.572L84.178 215.38Z" fill="#CEEBE9"/>
<path d="M91.0734 51.8589L87.2324 52.8301L89.473 54.799C89.473 54.799 92.1362 53.8847 91.0734 51.8589Z" fill="#43675E"/>
<path d="M94.9834 51.874C94.9834 51.874 95.0819 55.1594 93.342 57.3142L91.6144 59.4881L87.3672 57.1891C87.3672 57.1891 90.3505 54.0706 90.7116 52.9742L91.0727 51.8778L94.9834 51.874Z" fill="#CEEBE9"/>
<path opacity="0.5" d="M221.415 369C305.145 369 373.021 363.833 373.021 357.46C373.021 351.086 305.145 345.919 221.415 345.919C137.685 345.919 69.8086 351.086 69.8086 357.46C69.8086 363.833 137.685 369 221.415 369Z" fill="url(#paint0_linear_2053_3049)"/>
<path d="M240.698 102.411L247.608 100.863L243.726 97.2358C243.726 97.2358 238.913 98.7382 240.698 102.411Z" fill="#43675E"/>
<path d="M233.717 102.19C233.717 102.19 233.717 96.3136 236.946 92.554L240.163 88.7944L247.62 93.1041C247.62 93.1041 242.113 98.533 241.407 100.46L240.697 102.399L233.717 102.19Z" fill="#CEEBE9"/>
<path d="M212.903 284.521C210.941 290.947 213.613 316.009 212.903 323.74C212.813 324.704 212.747 325.831 212.694 327.068C212.694 327.235 212.694 327.405 212.673 327.576C212.333 336.302 212.599 349.894 210.761 351.59C209.37 352.876 203.452 353.487 198.996 353.586C198.368 353.586 197.765 353.609 197.215 353.609C196.141 353.644 195.065 353.576 194.006 353.404C192.225 352.911 199.533 347.47 200.067 345.661C200.284 344.902 199.152 338.98 197.646 331.267L197.473 330.387C195.323 319.427 192.508 305.254 191.687 297.215C190.793 288.421 186.763 273.079 184.071 262.134C183.636 260.374 183.251 258.72 182.902 257.236C181.987 253.238 181.465 250.408 181.708 249.588C182.262 247.737 185.598 241.621 189.915 236.754C192.529 233.833 195.504 231.374 198.446 230.589C200.724 229.982 203.608 229.193 206.563 228.385L206.76 228.332C213.921 226.363 221.389 224.272 221.389 224.272C221.323 225.031 214.848 278.14 212.903 284.521Z" fill="#6FC29F"/>
<path d="M184.916 238.708C184.916 238.708 194.765 303.308 196.443 312.371C198.121 321.434 199.352 333.301 199.352 333.301" stroke="#1B232A" stroke-miterlimit="10"/>
<path d="M165.306 291.285C164.773 296.065 167.091 316.005 169.053 329.849C169.081 330.05 169.11 330.251 169.135 330.448C169.188 330.827 169.233 331.184 169.282 331.552C170.924 344.621 170.103 355.259 169.586 356.048C169.176 356.701 161.711 357.972 156.59 358.469H156.496L156.139 358.503H156.077C154.945 358.605 153.952 358.666 153.205 358.666C149.101 358.666 147.144 357.843 148.568 356.196C149.992 354.55 154.436 352.569 154.087 350.426C153.96 349.667 152.339 343.218 150.238 334.803C150.148 334.45 150.061 334.09 149.967 333.73C146.179 318.555 141.021 297.716 140.082 291.596C138.588 281.873 137.874 244.463 148.391 229.136L184.092 234.512L194.86 236.132V236.166C193.994 237.653 165.835 286.57 165.306 291.285Z" fill="#6FC29F"/>
<path d="M159.13 133.018C159.142 139.928 157.071 146.703 153.151 152.586H153.114C151.945 152.586 150.784 152.541 149.639 152.442C143.836 151.964 138.22 150.299 133.198 147.568C128.177 144.837 123.874 141.108 120.603 136.652C117.331 132.195 115.171 127.122 114.281 121.799C113.39 116.476 113.79 111.036 115.452 105.874C115.637 105.29 115.862 104.713 116.059 104.144C117.168 101.246 118.672 98.4911 120.536 95.9458L120.745 95.665C131.103 96.1562 140.861 100.306 148.004 107.257C155.147 114.208 159.13 123.43 159.13 133.018Z" fill="#6FC29F"/>
<path d="M158.177 233.104C158.177 233.104 130.769 268.386 155.345 340.551" stroke="#1B232A" stroke-miterlimit="10"/>
<path d="M192.405 116.265C192.405 117.525 192.335 118.765 192.204 119.991C192.106 120.871 191.969 121.741 191.794 122.601C190.177 130.996 185.419 138.598 178.351 144.077C171.284 149.556 162.357 152.563 153.134 152.571C156.802 147.042 158.851 140.727 159.081 134.245C159.311 127.763 157.714 121.336 154.447 115.597C151.179 109.858 146.354 105.003 140.444 101.508C134.534 98.0139 127.742 96.0003 120.736 95.6652C121.409 94.7585 122.132 93.8821 122.891 93.0399C127.106 88.3542 132.529 84.7243 138.66 82.4844C144.791 80.2445 151.433 79.4666 157.975 80.2223C164.516 80.978 170.747 83.243 176.093 86.8089C181.44 90.3747 185.73 95.1267 188.568 100.627C188.851 101.174 189.118 101.731 189.368 102.293C191.373 106.718 192.405 111.468 192.405 116.265Z" fill="url(#paint1_linear_2053_3049)"/>
<path d="M132.244 124.012C132.244 124.012 131.013 136.865 132.532 137.976C134.05 139.088 135.014 137.104 134.776 133.894L132.244 124.012Z" fill="#D27358"/>
<path d="M221.938 222.998C221.803 223.435 221.628 223.86 221.413 224.269C220.243 226.496 216.767 230.718 205.95 233.833C201.162 235.157 196.255 236.084 191.288 236.602C190.833 236.655 190.381 236.705 189.93 236.746C173.105 238.476 159.974 236.132 152.489 233.791C148.312 232.486 145.895 231.177 145.566 230.581C144.651 228.924 146.354 223.248 146.428 222.994C146.428 223.089 146.752 224.36 163.027 226.689H163.072C164.151 226.845 165.296 227 166.515 227.167L166.831 227.205C167.291 227.266 167.758 227.315 168.234 227.353H168.284C179.999 228.358 195.638 224.405 207.001 220.786C210.349 219.72 213.324 218.684 215.717 217.812C217.395 217.205 218.786 216.674 219.82 216.271C221.084 215.778 221.819 215.475 221.872 215.448C221.872 215.448 222.414 217.671 221.913 219.527C221.413 221.382 222.438 221.404 221.938 222.998Z" fill="url(#paint2_linear_2053_3049)"/>
<path d="M221.635 217.391C220.892 219.072 216.711 221.944 206.825 224.979C201.449 226.593 195.978 227.926 190.44 228.97C182.333 230.571 174.003 230.971 165.761 230.153C156.552 229.209 150.212 226.902 148.374 225.673C146.634 224.508 146.322 223.59 146.429 222.994C146.473 222.696 146.625 222.421 146.86 222.213H146.897C147.274 222.331 150.84 223.298 171.904 224.834C184.132 225.726 197.432 222.179 207.039 218.734C211.685 217.1 216.218 215.199 220.609 213.043C220.969 213.399 221.265 213.805 221.487 214.246C221.691 214.626 221.829 215.033 221.898 215.452C222.008 216.109 221.917 216.78 221.635 217.391Z" fill="#354E4C"/>
<path d="M153.006 135.135C150.774 135.996 138.57 142.385 138.57 142.385C132.414 130.848 131.832 121.974 131.844 118.951C131.844 118.219 131.885 117.813 131.885 117.813L133.756 116.675L139.37 113.26C139.37 113.26 152.739 120.567 155.591 125.082C158.443 129.596 155.255 134.27 153.006 135.135Z" fill="#F8AD88"/>
<path d="M146.335 128.507C146.335 128.507 148.728 125.271 151.346 125.677C153.964 126.083 154.272 129.031 153.787 131.929C153.303 134.828 148.576 135.697 143.963 138.041C139.351 140.386 137.779 143.227 137.779 143.227C137.779 143.227 155.014 137.419 155.347 134.881C155.679 132.343 157.427 125.533 154.608 124.369C151.789 123.204 148.391 122.711 147.078 124.406C145.765 126.102 146.335 128.507 146.335 128.507Z" fill="#D27358"/>
<path d="M146.861 127.016C145.498 128.018 145.433 132.589 145.433 132.589C144.887 131.251 144.502 129.862 144.284 128.447C143.935 126.14 141.957 121.618 139.093 121.026C137.016 120.601 133.582 119.509 131.846 118.94C131.846 118.207 131.887 117.801 131.887 117.801L133.758 116.663C137.312 116.003 142.757 116.231 142.757 116.231C142.757 116.231 148.223 126.03 146.861 127.016Z" fill="#D27358"/>
<path d="M215.721 217.838C212.911 219.261 209.991 220.491 206.985 221.518C204.112 222.543 200.632 223.658 196.434 224.864C191.471 226.29 186.348 227.191 181.165 227.55C176.876 227.846 172.567 227.789 168.288 227.38H168.239C167.766 227.334 167.298 227.285 166.835 227.232L166.561 227.198H166.519C165.329 227.056 164.182 226.897 163.077 226.72H163.031C153.569 225.202 147.413 222.49 146.9 222.258H146.863L145.033 190.121C145.033 190.121 145.292 156.422 149.01 143.899C149.674 141.664 150.446 140.105 151.349 139.532C157.307 135.738 207.567 139.532 212.902 148.595C216.636 154.923 218.914 183.85 219.948 200.736C220.108 203.343 220.235 205.668 220.358 207.565C220.481 209.906 220.563 211.624 220.6 212.497C220.6 212.876 220.629 213.104 220.629 213.104C220.678 213.172 221.528 214.792 215.721 217.838Z" fill="#6FC29F"/>
<path d="M156.355 132.127C156.355 132.506 156.355 132.885 156.334 133.246L156.31 133.86L153.006 135.135C154.878 133.568 156.289 125.328 151.849 124.835C151.527 124.801 151.203 124.801 150.881 124.835C147.13 125.214 145.612 130.196 145.612 130.196L142.846 119.486C142.846 119.486 139.563 120.226 131.885 117.836C124.208 115.446 120.921 108.108 121.196 103.161C121.47 98.2144 126.19 97.8085 127.351 99.1249C128.512 100.441 130.917 103.161 130.917 103.161C130.681 102.126 130.641 101.061 130.798 100.013C130.876 99.3108 130.991 98.6621 131.089 98.1841C139.681 101.224 146.852 106.948 151.357 114.364C151.797 115.083 152.208 115.817 152.588 116.569C154.908 121.09 156.187 126.009 156.343 131.011C156.351 131.383 156.355 131.755 156.355 132.127Z" fill="url(#paint3_linear_2053_3049)"/>
<path d="M157.947 121.038C158.957 124.269 159.509 127.607 159.589 130.97C159.589 131.258 159.589 131.546 159.589 131.838C159.589 132.13 159.589 132.347 159.589 132.597" stroke="#231F20" stroke-miterlimit="10"/>
<path d="M159.584 131.838C159.584 132.707 156.334 133.246 156.334 133.246C156.987 128.063 153.741 119.076 153.741 119.076C146.457 102.854 131.077 98.1839 131.077 98.1839C127.695 96.9887 124.15 96.2354 120.543 95.9456C121.278 94.941 122.067 93.9711 122.907 93.0396C129.715 93.8894 136.197 96.2574 141.795 99.9394C147.392 103.621 151.937 108.507 155.038 114.174C155.426 114.88 155.79 115.598 156.129 116.329C156.847 117.86 157.454 119.433 157.947 121.037C159.051 124.224 159.572 130.969 159.584 131.838Z" fill="#354E4C"/>
<path d="M159.573 132.601C159.573 132.806 159.573 133.011 159.573 133.212C159.326 140.08 157.116 146.765 153.167 152.586H153.13C151.961 152.586 150.799 152.541 149.654 152.442C153.688 146.932 155.997 140.499 156.327 133.853L159.573 132.601Z" stroke="#231F20" stroke-miterlimit="10"/>
<path opacity="0.4" d="M151.345 114.364C149.474 112.168 145.962 107.3 143.61 105.544C142.51 103.317 141.624 99.4928 140.065 98.184C135.941 94.7279 135.551 91.1997 135.551 91.1997L146.044 94.6141L151.345 114.364Z" fill="#354E4C"/>
<path d="M189.385 102.285C180.262 110.196 168.587 115.126 156.146 116.322C154.972 116.436 153.789 116.515 152.596 116.561C152.346 116.075 152.088 115.594 151.813 115.123C151.669 114.865 151.517 114.611 151.361 114.364C152.592 114.338 153.823 114.277 155.055 114.175C167.54 113.174 179.326 108.412 188.601 100.62C188.691 100.79 188.778 100.965 188.86 101.139C189.032 101.515 189.213 101.902 189.385 102.285Z" fill="#CEEBE9"/>
<path d="M192.188 119.99C192.09 120.87 191.953 121.74 191.778 122.6C182.453 129.104 171.197 132.811 159.524 133.223C158.769 133.249 158.01 133.265 157.247 133.265H156.303C156.303 132.885 156.323 132.506 156.323 132.145C156.323 131.785 156.323 131.387 156.303 131.03C156.574 131.03 156.844 131.03 157.123 131.03C157.944 131.03 158.753 131.014 159.549 130.981C171.399 130.538 182.806 126.697 192.188 119.99Z" fill="#CEEBE9"/>
<path d="M146.859 131.838C146.859 131.838 148.017 128.458 150.064 127.388C152.112 126.318 153.273 127.802 153.097 129.82C153.097 129.82 152.563 127.965 151.004 128.542C149.445 129.118 146.859 131.838 146.859 131.838Z" fill="#D27358"/>
<path d="M134.676 120.07C134.595 120.205 134.549 120.355 134.542 120.509C134.535 120.663 134.567 120.817 134.637 120.957C134.706 121.097 134.81 121.221 134.94 121.317C135.07 121.414 135.223 121.48 135.386 121.512C136.638 121.754 137.826 122.22 138.883 122.885C140.803 124.171 141.062 124.247 140.807 122.965C140.553 121.683 138.915 120.267 137.323 119.774C136.182 119.429 135.148 119.334 134.676 120.07Z" fill="url(#paint4_linear_2053_3049)"/>
<path d="M135.979 124.176C136.242 123.331 136.111 122.553 135.686 122.441C135.262 122.328 134.704 122.922 134.441 123.767C134.178 124.613 134.309 125.39 134.734 125.503C135.159 125.616 135.716 125.022 135.979 124.176Z" fill="#01010B"/>
<path d="M143.137 137.369C142.877 137.737 142.503 138.024 142.064 138.191C141.624 138.358 141.14 138.399 140.675 138.306C139.518 138.143 138.135 137.385 136.789 135.822C136.789 135.822 140.248 133.659 141.061 131.929C141.454 132.447 141.818 132.982 142.152 133.534C142.944 134.805 143.724 136.501 143.137 137.369Z" fill="#7A2B18"/>
<path d="M143.138 137.37C142.878 137.738 142.504 138.024 142.065 138.191C141.625 138.359 141.141 138.399 140.676 138.307C140.449 137.461 140.466 136.576 140.725 135.738C140.985 134.901 141.477 134.141 142.153 133.534C142.945 134.805 143.725 136.501 143.138 137.37Z" fill="#EE7671"/>
<path opacity="0.65" d="M181.165 227.55C161.439 228.927 146.859 222.239 146.859 222.239L145.029 190.102C145.029 190.102 145.288 156.403 149.006 143.879C152.518 148.504 162.642 163.091 160.672 175.295C158.317 189.882 161.94 219.963 181.165 227.55Z" fill="#354E4C"/>
<path d="M145.819 203.802C145.819 203.802 154.6 191.616 157.173 174.006L155.121 163.429L145.527 198.563L145.819 203.802Z" fill="#354E4C"/>
<path d="M165.306 135.135C138.329 147.408 122.095 168.099 115.526 177.758C113.851 180.22 112.809 181.965 112.374 182.667C110.236 186.127 107.741 185.304 107.204 182.667C106.666 180.03 108.632 176.897 121.184 158.44C128.534 147.632 140.061 140.757 148.383 136.918C151.646 135.378 155.032 134.069 158.51 133.003C163.115 130.15 165.306 135.135 165.306 135.135Z" fill="url(#paint5_linear_2053_3049)"/>
<path opacity="0.65" d="M220.581 212.452C214.943 215.946 194.479 223.074 183.723 223.218C171.671 223.378 160.14 217.118 160.033 213.514C159.927 209.91 153.41 172.583 153.41 172.583C156.028 134.043 209.818 189.83 219.949 200.706C220.302 206.518 220.503 210.904 220.581 212.452Z" fill="#354E4C"/>
<path opacity="0.29" d="M165.306 135.135C138.329 147.408 122.095 168.099 115.525 177.758C119.732 170.751 132.35 150.287 139.211 145.204C147.517 139.039 148.374 136.93 148.374 136.93C151.638 135.389 155.024 134.08 158.502 133.014C163.114 130.15 165.306 135.135 165.306 135.135Z" fill="#354E4C"/>
<path d="M114.014 187.91L112.898 188.475L105.725 192.003C102.783 187.553 103.989 186.935 104.256 182.735C104.42 180.129 105.984 178.941 107.129 178.433C107.53 178.248 107.958 178.12 108.401 178.054C108.372 178.114 107.99 178.968 108.516 180.759C109.053 182.621 109.989 182.367 112.348 182.697C114.708 183.027 114.014 187.91 114.014 187.91Z" fill="#CEEBE9"/>
<path opacity="0.65" d="M112.898 188.475L105.725 192.003C102.783 187.553 103.989 186.935 104.256 182.735C104.42 180.129 105.984 178.941 107.129 178.433C107.215 179.765 107.559 182.701 108.934 183.198C110.723 183.847 113.194 182.61 113.448 185.391C113.575 186.446 113.385 187.513 112.898 188.475Z" fill="#354E4C"/>
<path d="M123.375 209.91C123.375 209.91 122.87 214.777 118.451 213.172C118.307 213.123 118.159 213.062 118.007 212.998C113.194 210.9 107.847 200.391 105.976 194.583C105.274 192.413 105.606 190.789 106.427 189.651C107.794 187.72 110.531 187.041 112.127 187.041C114.667 187.041 119.481 192.732 119.481 192.732L123.375 209.91Z" fill="#6FC29F"/>
<path d="M176.812 217.417C171.26 219.049 150.004 219.622 138.07 218.366C135.313 218.074 133.056 217.687 131.603 217.194C131.301 217.086 131.008 216.959 130.725 216.814C129.084 215.98 128.924 215.141 129.564 214.352C130.331 213.404 132.284 212.523 134.332 211.818C136.337 211.146 138.383 210.582 140.459 210.13C140.459 210.13 141.788 210.319 144.021 210.509C148.648 210.913 153.302 211.007 157.944 210.79C161.654 210.625 165.343 210.18 168.974 209.462L176.812 217.417Z" fill="url(#paint6_linear_2053_3049)"/>
<path d="M139.819 211.268C133.663 221.511 120.434 216.579 118.025 212.998C117.159 211.712 117.11 208.73 117.393 205.44C117.84 201.17 118.543 196.926 119.498 192.728C119.498 192.728 121.102 189.64 125.653 168.379C130.204 147.119 147.845 142.385 147.845 142.385C148.776 142.552 149.656 142.905 150.422 143.42C153.906 145.75 154.895 151.387 155.347 159.233C155.86 168.747 145.966 200.994 139.819 211.268Z" fill="#6FC29F"/>
<path opacity="0.65" d="M119.855 207.891L118.468 213.172C118.324 213.123 118.177 213.062 118.025 212.998C113.211 210.9 107.865 200.391 105.993 194.583C105.292 192.413 105.624 190.789 106.445 189.651C107.745 194.784 115.218 204.344 115.218 204.344L119.855 207.891Z" fill="#354E4C"/>
<path opacity="0.65" d="M139.819 211.268C133.663 221.511 120.434 216.579 118.025 212.998C117.159 211.711 117.11 208.73 117.393 205.44C123.958 208.286 132.116 207.641 137.779 191.988C144.091 174.537 149.007 143.868 149.007 143.868C149.417 143.593 149.907 143.437 150.414 143.42C153.898 145.75 154.887 151.387 155.338 159.233C155.86 168.747 145.966 200.994 139.819 211.268Z" fill="#354E4C"/>
<path opacity="0.29" d="M176.812 217.417C169.68 219.515 136.634 219.861 130.725 216.829C129.084 215.995 128.924 215.156 129.564 214.367C133.415 214.745 137.288 214.911 141.16 214.864C151.78 214.754 157.759 210.926 157.944 210.809L168.203 208.688L168.987 209.485L176.812 217.417Z" fill="#354E4C"/>
<path opacity="0.65" d="M144.021 210.528C143.961 210.839 143.866 211.143 143.738 211.435C142.938 213.248 141.243 213.332 140.414 215.471C140.028 216.473 139.027 217.528 138.071 218.366C135.313 218.074 133.056 217.687 131.604 217.194L134.328 211.833C136.333 211.161 138.379 210.597 140.455 210.145C140.455 210.145 141.789 210.335 144.021 210.528Z" fill="#354E4C"/>
<path d="M130.724 217.861C127.515 217.406 123.375 216.416 123.375 216.416C123.375 216.416 118.43 216.127 116.235 210.099C115.592 208.238 115.249 206.301 115.217 204.348C114.806 192.728 119.497 192.728 119.497 192.728C119.497 192.728 117.933 199.177 118.426 204.302C118.509 205.368 118.734 206.421 119.095 207.436C121.023 212.531 130.724 217.861 130.724 217.861Z" fill="#CEEBE9"/>
<path opacity="0.29" d="M130.725 217.861C127.516 217.406 123.376 216.416 123.376 216.416C123.376 216.416 118.431 216.127 116.235 210.099C116.235 210.099 115.004 202.986 117.056 200.27C117.41 201.64 117.863 202.987 118.41 204.302C118.493 205.368 118.718 206.421 119.079 207.436C121.024 212.531 130.725 217.861 130.725 217.861Z" fill="#354E4C"/>
<path opacity="0.65" d="M131.764 161.088L133.286 160.409C137.969 162.744 143.09 164.234 148.375 164.799L146.569 172.583H145.03L131.764 161.088Z" fill="#354E4C"/>
<path d="M134.812 174.685L136.216 174.006L142.892 175.797L137.878 188.403H136.294L134.812 174.685Z" fill="#28383B"/>
<path d="M137.526 214.652C137.526 214.69 137.505 215.995 134.813 217.398C134.467 217.564 134.094 217.68 133.709 217.74C129.782 218.446 120.168 216.351 117.894 206.704C115.354 195.949 119.499 192.735 119.499 192.735C118.871 194.655 119.334 197.007 120.274 199.367L120.381 199.629C120.52 199.974 120.672 200.319 120.836 200.66C120.96 200.93 121.087 201.203 121.226 201.48C122.029 203.042 122.923 204.561 123.906 206.032C123.907 206.043 123.907 206.053 123.906 206.063C124.082 206.328 124.255 206.582 124.423 206.822C125.05 207.67 125.817 208.423 126.696 209.052C127.062 209.325 127.447 209.599 127.849 209.864L127.89 209.887C131.945 212.539 137.526 214.652 137.526 214.652Z" fill="white"/>
<path opacity="0.65" d="M157.279 133.254C157.279 133.254 154.312 139.46 149.638 141.19C144.964 142.92 139.461 146.657 139.461 146.657C139.461 146.657 147.964 141.243 151.078 145.204C154.193 149.164 160.754 142.806 160.849 138.041C160.943 133.276 158.506 133.011 158.506 133.011L157.279 133.254Z" fill="#354E4C"/>
<path d="M189.553 102.376C180.429 110.286 168.755 115.217 156.314 116.413C155.14 116.527 153.957 116.606 152.764 116.652C152.514 116.166 152.255 115.684 151.98 115.214C157.479 114.835 169.47 113.473 178.325 108.677C183.865 105.677 187.123 103.108 189.027 101.223C189.2 101.598 189.38 101.978 189.553 102.376Z" fill="#43675E"/>
<path opacity="0.56" d="M137.524 214.652C137.524 214.69 137.503 215.995 134.811 217.399C134.464 217.564 134.092 217.68 133.707 217.74C131.247 217.635 128.849 216.989 126.714 215.854C124.579 214.719 122.769 213.128 121.433 211.215C116.755 204.602 119.099 196.195 119.099 196.195C119.099 196.195 119.509 197.516 120.272 199.367L120.379 199.629C120.518 199.974 120.67 200.319 120.834 200.661C120.957 200.93 121.085 201.203 121.224 201.48C121.976 203.065 122.872 204.588 123.904 206.032C123.905 206.043 123.905 206.053 123.904 206.063C124.692 207.168 125.63 208.175 126.694 209.06C127.056 209.357 127.441 209.628 127.847 209.872L127.888 209.895C131.943 212.539 137.524 214.652 137.524 214.652Z" fill="#354E4C"/>
<path opacity="0.4" d="M165.104 102.02C165.104 102.02 163.073 106.83 167.484 111.155C171.895 115.48 174.682 116.728 175.236 121.622C175.79 126.516 183.792 130.901 188.203 129.433C192.614 127.965 173.841 133.253 173.841 133.253L158.756 105.893L165.104 102.02Z" fill="#354E4C"/>
<path opacity="0.4" d="M192.406 116.265C192.406 117.525 192.337 118.765 192.205 119.991C192.107 120.871 191.97 121.741 191.795 122.601C190.939 127.126 189.155 131.458 186.538 135.363C178.84 136.288 170.104 133.291 174.269 129.942C180.112 125.245 182.603 107.521 176.062 101.64C171.138 97.2281 171.548 88.5177 172.065 84.4395C179.262 88.1088 185.038 93.766 188.586 100.62C188.869 101.166 189.136 101.724 189.386 102.285C191.386 106.714 192.413 111.466 192.406 116.265Z" fill="#354E4C"/>
<path d="M223.108 144.528C221.492 146.805 213.695 149.798 205.775 151.619C199.57 153.045 193.288 153.755 189.837 152.84C189.363 152.718 188.908 152.541 188.483 152.313C185.947 150.887 183.969 146.152 183.07 140.499C181.765 132.434 182.606 122.506 187.009 117.707C194.498 109.55 190.235 104.345 182.598 100.635C174.961 96.9244 176.984 89.7884 176.443 83.1152C175.901 76.4421 174.038 77.4246 170.361 75.5733C166.684 73.722 168.556 66.18 161.473 57.0371C161.091 56.5477 160.718 56.0962 160.344 55.6789C159.971 55.2616 159.7 54.9809 159.388 54.6698C153.356 48.7098 148.945 51.908 148.104 46.9496C147.168 41.4372 135.854 41.0503 135.854 41.0503C135.854 41.0503 130.721 41.7104 130.323 39.6125C130.163 38.7778 130.618 38.3909 131.464 38.3188C132.74 38.205 134.89 38.793 137.139 39.6125C140.881 40.9782 149.039 41.8318 155.855 42.5336C162.671 43.2355 163.077 45.0451 163.077 49.9921C163.077 54.9392 167.755 61.1154 181.441 62.1017C193.378 62.9667 195.233 67.7923 193.411 72.0299C193.139 72.6632 192.801 73.2705 192.402 73.8434C191.38 75.3191 190.711 76.7304 190.604 78.0734C190.567 78.3784 190.567 78.6864 190.604 78.9915C190.908 81.4346 193.337 83.6388 199.291 85.5736C209.185 88.7869 202.5 96.5754 201.433 102.384C200.367 108.192 205.176 104.857 210.79 114.869C216.403 124.881 218.041 118.2 223.888 124.361C229.736 130.522 226.182 140.2 223.108 144.528Z" fill="url(#paint7_linear_2053_3049)"/>
<path opacity="0.18" d="M212.143 138.701V146.626C210.148 148.425 208.02 150.093 205.774 151.619C201.786 154.332 196.701 156.904 193.008 155.898C192.146 155.663 191.067 154.574 189.836 152.841C187.875 150.075 185.531 145.678 183.069 140.5C181.764 132.434 182.606 122.506 187.009 117.707C194.498 109.55 190.234 104.345 182.597 100.635C174.961 96.9247 176.984 89.7887 176.442 83.1155C175.9 76.4423 174.037 77.4249 170.361 75.5736C166.684 73.7222 168.555 66.1803 161.472 57.0374C161.091 56.548 160.717 56.0965 160.344 55.6792C163.495 57.872 166.626 61.9616 168.186 66.3017C170.352 72.3716 174.706 71.2335 182.856 78.9993C191.006 86.7651 186.069 99.3034 190.48 101.022C194.892 102.741 195.696 109.93 195.294 115.245C194.892 120.56 199.036 126 205.713 127.851C212.389 129.703 212.143 138.701 212.143 138.701Z" fill="#354E4C"/>
<path d="M134.4 214.853C131.692 214.762 128.635 213.354 125.972 211.025C121.335 206.988 117.884 200.182 119.496 192.728C119.733 193.703 120.027 194.665 120.379 195.611C122.291 200.865 127.65 211.45 139.817 211.264C139.817 211.268 141.82 215.099 134.4 214.853Z" fill="#CEEBE9"/>
<path d="M131.764 161.088C136.4 163.604 141.532 165.243 146.861 165.91L145.03 172.583C145.03 172.583 136.926 171.266 132.309 168.918C131.447 168.479 130.764 167.791 130.364 166.96C129.964 166.128 129.869 165.199 130.093 164.313C130.467 162.829 131.045 161.221 131.764 161.088Z" fill="#CEEBE9"/>
<path d="M134.812 174.685L130.725 186.054L136.293 188.403L141.16 176.54L134.812 174.685Z" fill="#EE7671"/>
<path d="M188.495 153.922C184.33 156.251 169.208 155.173 161.001 149.957C160.509 149.646 160.037 149.316 159.598 148.975C151.826 142.905 157.612 140.325 158.519 133.01C159.425 125.696 148.855 119.562 147.517 107.039C146.179 94.5154 135.149 94.8417 134.669 88.7831C134.628 88.2629 134.558 87.745 134.459 87.2315C134.361 86.7269 134.238 86.2299 134.09 85.7443C134.033 85.5508 133.971 85.3649 133.909 85.179C133.422 83.7304 132.732 82.3467 131.858 81.0628C130.467 79.0522 128.985 77.9633 128.402 78.559C127.82 79.1546 128.181 80.0196 128.645 81.0363C128.65 81.0494 128.657 81.0621 128.665 81.0742C129.186 82.2123 129.876 83.4605 129.806 84.5531C129.675 86.6548 126.597 85.3573 126.33 81.5181C126.063 77.6788 124.992 68.2931 121.188 63.7217C117.384 59.1502 115.218 54.1766 115.086 50.0983C115.029 48.3381 115.542 47.1506 116.256 46.9647C117.192 46.7105 118.472 48.1825 119.231 52.3253C120.413 58.7936 127.807 62.7315 129.461 63.5396L129.79 63.6951C135.407 65.2999 131.661 63.8165 139.228 65.1785C146.795 66.5404 147.156 70.3683 145.014 72.7166C142.872 75.0649 146.618 74.2 145.683 78.2782C145.584 78.6969 145.518 79.1217 145.486 79.5491C145.219 82.9635 147.32 86.154 155.334 89.6784C155.773 89.8719 156.229 90.0578 156.705 90.2626C166.923 94.4661 165.474 100.885 164.403 106.454C163.332 112.024 170.148 112.524 171.625 119.987C173.103 127.449 178.039 127.392 188.61 131.834C199.181 136.277 192.894 151.448 188.495 153.922Z" fill="url(#paint8_linear_2053_3049)"/>
<path opacity="0.18" d="M185.622 143.868L161.001 149.957C160.508 149.646 160.037 149.316 159.597 148.975C151.825 142.905 157.611 140.325 158.518 133.01C159.425 125.696 148.854 119.562 147.517 107.039C146.179 94.5154 135.148 94.8417 134.668 88.7831C134.628 88.2629 134.558 87.745 134.459 87.2314C136.022 91.7081 140.914 92.0002 146.413 95.6649C152.47 99.7015 155.059 104.254 153.114 111.033C151.169 117.813 161.477 128.458 171.637 131.14C181.798 133.822 185.622 143.868 185.622 143.868Z" fill="#354E4C"/>
<path d="M226.182 207.064C223.253 210.202 197.125 218.468 185.668 220.384C184.393 220.618 183.098 220.745 181.798 220.763C174.309 220.638 164.329 214.841 164.329 214.841C164.329 214.841 152.876 146.687 150.357 143.383C150.357 143.383 149.413 141.937 151.272 142.791C151.272 142.791 170.366 151.827 178.926 152.309C179.348 152.336 179.772 152.336 180.194 152.309C187.945 151.816 224.578 142.787 224.578 142.787C224.578 142.787 229.121 166.896 228.71 190.258C228.71 190.258 229.531 203.483 226.182 207.064Z" fill="url(#paint9_linear_2053_3049)"/>
<path d="M185.668 220.388C184.393 220.621 183.098 220.748 181.798 220.767C174.309 220.642 164.329 214.845 164.329 214.845C164.329 214.845 152.876 146.687 150.357 143.383C150.357 143.383 149.413 141.937 151.272 142.791C151.272 142.791 170.366 151.827 178.926 152.309C178.926 152.309 188.737 208.988 185.668 220.388Z" fill="url(#paint10_linear_2053_3049)"/>
<path d="M131.943 176.142C132.725 173.73 132.489 171.533 131.416 171.236C130.344 170.939 128.841 172.655 128.059 175.067C127.278 177.48 127.514 179.676 128.586 179.973C129.659 180.27 131.162 178.555 131.943 176.142Z" fill="#CEEBE9"/>
<path d="M187.543 160.409L223.109 153.053L223.888 164.4L188.881 172.583L187.543 160.409Z" fill="#CEEBE9"/>
<path opacity="0.65" d="M223.108 153.053L220.9 152.313L185.605 159.483L187.144 172.211L188.88 172.583L187.542 160.409L223.108 153.053Z" fill="#354E4C"/>
<path d="M200.395 210.058C199.694 210.144 198.982 210.095 198.304 209.912C197.626 209.73 196.996 209.418 196.455 208.998C195.914 208.578 195.475 208.058 195.164 207.471C194.853 206.885 194.678 206.245 194.65 205.592L193.008 182.989C192.914 181.622 193.375 180.271 194.302 179.202C195.229 178.133 196.555 177.423 198.019 177.211C198.719 177.125 199.431 177.174 200.109 177.357C200.788 177.539 201.417 177.85 201.958 178.271C202.499 178.691 202.939 179.211 203.25 179.797C203.561 180.384 203.736 181.024 203.764 181.677L205.405 204.28C205.501 205.647 205.04 206.998 204.112 208.067C203.185 209.136 201.859 209.846 200.395 210.058Z" fill="#28383B"/>
<path d="M201.627 208.646C200.987 208.725 200.336 208.68 199.716 208.514C199.096 208.347 198.52 208.063 198.026 207.679C197.531 207.295 197.128 206.82 196.843 206.285C196.558 205.749 196.397 205.164 196.37 204.568L194.877 183.922C194.781 182.668 195.199 181.425 196.047 180.442C196.895 179.458 198.112 178.805 199.456 178.611C200.097 178.531 200.748 178.576 201.369 178.743C201.989 178.909 202.566 179.194 203.061 179.578C203.555 179.962 203.958 180.438 204.243 180.974C204.527 181.511 204.687 182.096 204.713 182.693L206.198 203.354C206.29 204.605 205.871 205.842 205.025 206.821C204.179 207.801 202.967 208.452 201.627 208.646Z" fill="#EE7671"/>
<path d="M220.503 203.764C219.869 203.842 219.225 203.797 218.611 203.632C217.997 203.466 217.427 203.185 216.938 202.805C216.448 202.424 216.049 201.954 215.768 201.424C215.486 200.893 215.326 200.314 215.3 199.723L213.827 179.271C213.744 178.039 214.161 176.822 214.996 175.858C215.832 174.894 217.025 174.253 218.345 174.059C218.978 173.98 219.622 174.025 220.236 174.189C220.85 174.354 221.419 174.635 221.909 175.015C222.398 175.395 222.796 175.865 223.078 176.396C223.36 176.926 223.518 177.505 223.544 178.095L225.017 198.532C225.105 199.767 224.69 200.988 223.855 201.956C223.021 202.923 221.825 203.568 220.503 203.764Z" fill="#28383B"/>
<path d="M221.586 202.485C221.007 202.557 220.418 202.516 219.857 202.366C219.295 202.215 218.774 201.958 218.327 201.61C217.879 201.263 217.515 200.833 217.257 200.348C217 199.863 216.854 199.334 216.83 198.794L215.484 180.099C215.408 178.968 215.79 177.852 216.557 176.968C217.323 176.084 218.418 175.496 219.629 175.319C220.208 175.247 220.797 175.288 221.358 175.438C221.919 175.589 222.441 175.846 222.888 176.194C223.336 176.541 223.7 176.971 223.958 177.456C224.215 177.941 224.361 178.47 224.385 179.01L225.731 197.705C225.807 198.836 225.425 199.952 224.658 200.836C223.892 201.72 222.797 202.308 221.586 202.485Z" fill="#EE7671"/>
<path d="M108.697 30.7086C107.355 32.0478 104.626 34.6427 100.079 34.123C98.3164 33.8858 96.6203 33.3343 95.0851 32.4993L94.8019 32.3551C89.8776 29.6995 82.9467 20.8904 78.1907 13.6178C77.742 12.935 77.3153 12.2673 76.9104 11.6147C76.9104 11.6147 76.8816 11.5692 76.8652 11.5465C74.7642 8.17003 73.2787 5.3437 72.9094 3.95898C72.1502 1.17438 73.529 0.32458 74.6657 0.0817806C75.2682 -0.0430092 75.895 -0.0247374 76.4877 0.134893C79.7659 0.980899 82.9549 2.09825 86.0162 3.47338C86.052 3.48679 86.0863 3.5033 86.1188 3.5227C96.5747 8.22314 104.039 14.9494 108.139 18.1362C108.249 18.2272 108.364 18.3145 108.471 18.3941L108.528 18.4397C113.641 22.4345 110.49 28.9218 108.697 30.7086Z" fill="url(#paint11_linear_2053_3049)"/>
<path opacity="0.15" d="M108.529 18.4513L105.431 17.5749C99.8989 11.9168 93.3658 7.17007 86.1113 3.53809C96.5754 8.22335 104.04 14.9496 108.139 18.1364C108.25 18.2274 108.365 18.3147 108.472 18.3944L108.529 18.4513Z" fill="#43675E"/>
<path opacity="0.15" d="M100.084 34.138C98.321 33.9008 96.625 33.3493 95.0897 32.5142L94.8066 32.3701C89.8823 29.7145 82.9513 20.9054 78.1953 13.6328C78.6385 14.1526 92.9928 30.7691 98.5039 33.144C99.0886 33.3886 99.623 33.7249 100.084 34.138Z" fill="#43675E"/>
<path d="M108.698 30.7085C106.917 32.4802 102.711 36.4598 95.0906 32.5143C92.9362 29.65 93.5394 25.071 96.7689 21.539C99.9984 18.0071 104.73 16.702 108.14 18.1474C108.251 18.2385 108.366 18.3257 108.472 18.4054C113.667 22.385 110.499 28.9141 108.698 30.7085Z" fill="#354E4C"/>
<path d="M108.011 30.3189C111.099 26.9401 111.311 22.4122 108.486 20.2056C105.66 17.999 100.867 18.9492 97.7797 22.328C94.6923 25.7068 94.4799 30.2346 97.3054 32.4413C100.131 34.6479 104.924 33.6977 108.011 30.3189Z" fill="#1B232A"/>
<path d="M90.7108 36.4904C90.4646 36.2931 80.7515 28.3452 86.7098 22.0059L91.5603 26.7974L92.6067 27.833C92.6067 27.833 89.2171 30.9022 90.7108 36.4904Z" fill="#6EC5A2"/>
<path d="M112.948 14.8242C106.85 13.6558 103.657 16.9032 103.657 16.9032L102.537 16.0117L97.1328 11.6868C103.756 5.93551 112.726 14.608 112.944 14.8242H112.948Z" fill="#6EC5A2"/>
<path d="M86.9146 15.9206C89.2534 15.9206 91.1494 14.1677 91.1494 12.0055C91.1494 9.8432 89.2534 8.09033 86.9146 8.09033C84.5757 8.09033 82.6797 9.8432 82.6797 12.0055C82.6797 14.1677 84.5757 15.9206 86.9146 15.9206Z" fill="white"/>
<path d="M165.756 293.793C165.756 293.831 165.756 293.872 165.756 293.914C165.666 295.728 162.884 298.197 159.252 299.848C155.62 301.498 143.564 301.577 140.712 298.118C139.481 296.6 139.165 295.341 139.218 294.385C139.236 293.678 139.489 292.994 139.945 292.427C139.945 292.427 142.407 293.095 148.197 294.904C153.987 296.714 165.309 291.281 165.309 291.281C165.309 291.281 165.818 292.063 165.756 293.793Z" fill="white"/>
<path opacity="0.56" d="M165.757 293.793C162.375 295.994 155.33 298.111 149.141 297.788C141.513 297.386 139.346 294.563 139.215 294.374C139.232 293.668 139.486 292.984 139.941 292.416C139.941 292.416 142.403 293.084 148.193 294.894C153.984 296.703 165.305 291.271 165.305 291.271C165.305 291.271 165.818 292.063 165.757 293.793Z" fill="#354E4C"/>
<path d="M139.585 287.078C139.585 287.078 143.738 291.524 151.941 292.101C160.144 292.678 166.476 288.102 166.476 288.102C166.476 288.102 168.528 290.288 163.349 293.008C158.171 295.728 154.17 297.211 146.861 295.663C139.553 294.116 137.571 290.788 139.585 287.078Z" fill="#CEEBE9"/>
<path d="M139.211 258.409L140.532 257.681C140.908 257.474 141.331 257.352 141.767 257.323C142.203 257.294 142.64 257.359 143.044 257.514C149.446 259.882 156.216 261.29 163.098 261.687C163.345 261.7 163.587 261.762 163.807 261.867C164.027 261.972 164.22 262.119 164.375 262.298C164.53 262.476 164.642 262.683 164.705 262.905C164.768 263.126 164.779 263.358 164.739 263.584L162.782 274.972C162.708 275.397 162.519 275.798 162.232 276.136C161.945 276.475 161.569 276.74 161.14 276.907L159.154 277.666L139.211 258.409Z" fill="#354E4C"/>
<path d="M169.586 356.04C169.175 356.693 161.711 357.964 156.59 358.461H156.495C156.327 358.483 156.208 358.491 156.138 358.495H156.077L158.129 358.844C156.211 359.101 154.279 359.255 152.342 359.307C149.261 359.307 147.307 358.874 146.93 358.013C146.762 357.634 146.893 357.186 147.34 356.651C148.875 354.876 153.652 352.747 153.278 350.444C153.139 349.621 151.395 342.694 149.133 333.634C149.133 333.634 149.429 333.672 149.954 333.722C152.232 333.927 158.867 334.295 164.891 332.326C166.383 331.851 167.809 331.214 169.138 330.429C169.192 330.808 169.237 331.165 169.286 331.533C170.94 344.614 170.099 355.251 169.586 356.04Z" fill="#354E4C"/>
<path d="M149.13 333.654C149.13 333.654 147.899 333.32 148.44 332.515C148.982 331.711 157.399 333.012 163.414 331.343C169.43 329.674 169.098 328.308 169.763 328.437C170.427 328.566 170.965 329.344 169.635 330.129C168.306 330.914 166.266 335.531 149.13 333.654Z" fill="#CEEBE9"/>
<path opacity="0.56" d="M169.282 331.545C170.924 344.614 170.103 355.252 169.586 356.041C169.151 356.716 161.178 358.055 156.044 358.514C159.253 356.132 162.77 351.849 162.035 344.728C160.739 332.095 152.905 309.898 157.152 283.626C161.399 257.354 174.104 237.263 174.104 237.263L184.917 237.156L194.864 236.144C194.864 236.144 165.844 286.498 165.306 291.286C164.768 296.073 167.091 316.006 169.053 329.849C169.135 330.414 169.208 330.979 169.282 331.545Z" fill="#354E4C"/>
<path d="M86.9153 14.771C88.5675 14.771 89.9068 13.5328 89.9068 12.0054C89.9068 10.478 88.5675 9.23975 86.9153 9.23975C85.2632 9.23975 83.9238 10.478 83.9238 12.0054C83.9238 13.5328 85.2632 14.771 86.9153 14.771Z" fill="#1B232A"/>
<path d="M86.111 3.53799C79.6684 4.67611 77.5468 8.57228 76.9026 11.6187C76.9026 11.6187 76.8738 11.5731 76.8574 11.5504C74.7564 8.17394 73.2709 5.3476 72.9016 3.96289C72.1424 1.17828 73.5212 0.328486 74.6579 0.0856868C75.2603 -0.0391029 75.8871 -0.0208312 76.4799 0.138799C79.7581 0.984805 82.9471 2.10215 86.0084 3.47729L86.111 3.53799Z" fill="#6EC5A2"/>
<path opacity="0.65" d="M183.931 156.915C183.931 156.915 185.474 162.408 182.967 165.375C180.459 168.342 178.129 170.648 181.165 176.498C184.202 182.348 183.554 187.045 178.662 189.845C173.771 192.644 171.686 196.863 174.829 201.882C177.973 206.901 161.755 195.118 164.021 189.613C166.286 184.109 172.946 176.752 172.958 169.833C172.97 162.913 176.06 159.787 176.06 159.787L183.931 156.915Z" fill="#354E4C"/>
<path d="M222.032 196.347C221.665 196.393 221.291 196.367 220.935 196.271C220.579 196.176 220.249 196.013 219.965 195.792C219.681 195.572 219.45 195.299 219.287 194.992C219.123 194.684 219.031 194.349 219.016 194.006L218.163 182.151C218.112 181.433 218.354 180.723 218.841 180.161C219.328 179.6 220.024 179.227 220.793 179.116C221.16 179.071 221.534 179.097 221.89 179.192C222.245 179.288 222.576 179.451 222.859 179.671C223.143 179.892 223.374 180.164 223.538 180.471C223.701 180.779 223.794 181.114 223.809 181.456L224.663 193.312C224.714 194.03 224.472 194.74 223.986 195.302C223.499 195.864 222.802 196.237 222.032 196.347Z" fill="white"/>
<path d="M111.024 24.521C109.665 23.5006 107.933 23.004 106.188 23.1348C104.443 23.2656 102.819 24.0137 101.656 25.2232C100.493 26.4327 99.8786 28.0105 99.942 29.6281C100.005 31.2456 100.741 32.7782 101.996 33.9067C101.996 33.9067 107.232 39.2976 122.026 41.995C122.026 41.995 121.394 35.8036 112.177 25.7274C111.85 25.2818 111.462 24.8764 111.024 24.521Z" fill="url(#paint12_linear_2053_3049)"/>
<path opacity="0.65" d="M203.449 148.023C203.873 149.406 204.864 150.582 206.211 151.3C208.534 152.602 207.467 155.295 211.956 156.915C216.445 158.535 219.129 158.292 217.348 162.822C215.567 167.352 226.934 160.056 223.877 155.424C220.82 150.792 209.424 146.744 209.157 146.657C208.891 146.57 203.445 145.01 203.449 148.023Z" fill="#354E4C"/>
<path d="M108.398 25.8376C108.007 25.5138 107.55 25.2644 107.054 25.1038C106.558 24.9431 106.033 24.8743 105.509 24.9012C104.984 24.9282 104.471 25.0504 103.997 25.2608C103.524 25.4713 103.1 25.7659 102.75 26.1278C102.399 26.4898 102.13 26.912 101.956 27.3703C101.782 27.8286 101.707 28.3141 101.737 28.799C101.766 29.2839 101.898 29.7588 102.126 30.1965C102.353 30.6341 102.672 31.0261 103.063 31.3499C103.063 31.3499 106.141 34.5177 114.828 36.0997C114.828 36.0997 114.459 32.4653 109.042 26.5471C108.86 26.2866 108.644 26.0483 108.398 25.8376Z" fill="white"/>
<path d="M165.844 77.7852C164.329 80.8202 155.585 78.0318 152.741 70.1218C151.719 67.2765 150.312 65.6604 148.83 64.473C148.261 64.0225 147.666 63.5996 147.049 63.2058C144.998 61.8666 142.991 60.7513 141.887 57.7618C139.659 51.7488 135.383 52.4885 131.489 50.4285C130.579 49.9674 129.765 49.3612 129.084 48.6379C127.742 47.1621 127.894 45.895 127.894 45.895C128.715 48.3685 133.688 49.8519 137.521 50.5917C141.354 51.3314 141.711 53.9719 142.334 56.4454C142.958 58.9189 146.343 59.985 153.824 64.5185C161.305 69.052 167.358 74.735 165.844 77.7852Z" fill="url(#paint13_linear_2053_3049)"/>
<path d="M256.261 162.818C249.174 167.268 253.856 172.211 248.239 174.685C243.429 176.802 241.468 178.262 240.75 180.474C240.628 180.86 240.54 181.255 240.487 181.654C240.077 184.571 233.536 183.103 234.069 178.585C234.574 174.294 238.337 172.962 237.738 169.343C237.708 169.145 237.665 168.948 237.61 168.755C236.474 164.677 232.6 162.935 235.674 158.554C238.747 154.172 237.68 151.452 235.005 151.346C232.329 151.239 233.532 155.648 230.191 156.937C226.851 158.227 226.219 153.273 226.219 153.273C226.219 153.273 225.111 144.289 224.578 142.813L214.791 145.173C214.791 145.173 212.772 144.999 211.684 143.614C211.167 142.961 210.863 142.032 211.073 140.719C211.17 140.146 211.307 139.58 211.483 139.023C212.328 136.22 213.773 135.158 213.773 135.158C213.773 135.158 214.298 134.615 215.184 133.822C217.757 131.523 223.363 127.13 227.934 127.862C234.09 128.852 233.95 131.159 236.223 127.783C237.044 126.595 239.584 125.241 242.613 124.41C248.198 122.874 255.334 123.116 255.871 129.456C256.499 137.111 253.77 139.456 255.116 142.07C255.2 142.235 255.298 142.393 255.408 142.544C255.942 143.265 256.594 143.905 257.34 144.441C259.565 146.141 260.98 148.842 261.366 151.744C261.891 155.769 260.398 160.219 256.261 162.818Z" fill="url(#paint14_linear_2053_3049)"/>
<path d="M242.494 149.346C239.819 156.391 236.076 157.135 237.16 161.088C238.21 164.961 237.775 169.165 237.755 169.339C237.725 169.141 237.683 168.945 237.628 168.751C236.491 164.673 232.617 162.932 235.691 158.55C238.764 154.168 237.697 151.448 235.022 151.342C232.346 151.236 233.549 155.644 230.208 156.934C226.868 158.224 226.236 153.269 226.236 153.269C226.236 153.269 225.128 144.285 224.595 142.81L214.808 145.169C214.808 145.169 212.789 144.995 211.701 143.61C211.404 142.096 211.331 140.552 211.484 139.02C211.705 137.176 212.415 135.605 213.847 134.6C213.847 134.6 214.36 134.255 215.185 133.818C217.27 132.707 221.341 130.985 224.328 132.62C228.473 134.896 226.601 138.735 231.813 139.232C237.024 139.729 245.166 142.301 242.494 149.346Z" fill="url(#paint15_linear_2053_3049)"/>
<path d="M140.713 258.511C143.754 259.998 150.439 262.65 160.267 263.181C160.531 263.196 160.789 263.262 161.025 263.375C161.26 263.487 161.467 263.644 161.632 263.836C161.798 264.027 161.918 264.248 161.985 264.485C162.053 264.722 162.066 264.969 162.023 265.211L160.054 276.463C159.979 276.893 159.734 277.282 159.366 277.554C158.998 277.826 158.534 277.962 158.063 277.935C153.726 277.677 142.297 276.592 136.852 272.115C136.634 271.934 136.466 271.707 136.361 271.454C136.256 271.201 136.218 270.928 136.249 270.659C136.466 268.542 137.102 262.923 137.997 259.634C138.067 259.377 138.198 259.138 138.382 258.935C138.567 258.732 138.798 258.57 139.06 258.462C139.322 258.354 139.606 258.302 139.893 258.31C140.179 258.319 140.46 258.388 140.713 258.511Z" fill="#CEEBE9"/>
<path d="M196.43 149.346L184.719 151.695C184.34 151.768 183.988 151.932 183.7 152.171C183.411 152.411 183.197 152.716 183.077 153.057C182.88 153.66 182.934 154.532 183.545 155.773C185.326 159.396 181.539 161.084 179.667 162.818C177.796 164.548 174.998 166.779 178.678 175.576C181.399 182.067 178.326 184.279 175.022 186.229C173.839 186.87 172.713 187.596 171.653 188.399C167.907 191.491 167.775 191.859 174.283 201.006C180.792 210.152 166.84 217.444 158.784 208.681C150.729 199.917 158.55 189.143 161.357 185.558C161.948 184.823 162.439 184.024 162.818 183.179C164.082 180.265 163.479 176.957 159.589 171.84C154.611 165.288 157.746 156.141 165.334 154.533C170.077 153.527 170.865 152.173 170.791 151.296C170.754 150.978 170.61 150.679 170.381 150.439C162.51 148.607 151.287 142.806 151.287 142.806C151.475 142.356 151.704 141.922 151.972 141.509C153.224 139.638 156.211 136.558 161.587 138.292C169.076 140.704 169.076 138.967 171.616 138.386C174.156 137.806 176.159 137.248 180.89 140.082C185.622 142.916 188.059 136.99 192.38 138.705C193.771 139.255 194.682 140.549 195.281 142.055C196.57 145.226 196.43 149.346 196.43 149.346Z" fill="url(#paint16_linear_2053_3049)"/>
<path opacity="0.31" d="M213.565 166.221C213.565 166.221 210.22 166.858 211.382 172.871C212.543 178.884 215.933 182.511 221.46 182.355C226.988 182.2 224.415 176.084 224.415 176.084C224.415 176.084 218.428 175.352 216.208 172.055C213.987 168.759 213.565 166.221 213.565 166.221Z" fill="#354E4C"/>
<path d="M218.426 170.853C218.393 172.124 219.452 172.795 220.691 173.379C222.567 174.26 224.857 174.939 224.438 177.173C223.74 180.887 218.533 181.012 215.472 178.034C212.41 175.056 210.137 168.755 212.673 167.033C215.209 165.31 212.386 164.684 215.472 162.461C218.27 160.443 220.925 159.726 219.858 157.624C219.732 157.379 219.581 157.145 219.407 156.926C217.355 154.27 214.167 156.744 212.152 154.1C210.137 151.455 210.671 149.851 208.664 149.851C206.657 149.851 205.791 149.054 205.418 148.246C205.045 147.438 199.213 148.747 199.213 148.747C199.213 148.747 197.753 144.111 200.535 142.533C202.775 141.262 203.863 141.47 204.228 140.059C204.324 139.616 204.369 139.164 204.363 138.712C204.396 135.761 208.943 132.054 212.956 134.539L213.055 134.604C216.887 137.066 212.267 140.442 214.286 142.616C216.305 144.79 218.25 143.705 218.517 145.56C218.783 147.415 220.302 150.492 222.308 150.359C223.197 150.28 224.094 150.405 224.918 150.723C225.742 151.041 226.468 151.543 227.031 152.184C227.91 153.193 228.591 154.726 228.808 157.032C229.391 163.189 218.512 167.662 218.426 170.853Z" fill="url(#paint17_linear_2053_3049)"/>
<path d="M213.601 288.273C213.536 288.845 213.327 289.395 212.989 289.878C211.566 292.017 204.257 294.491 198.106 294.809C191.955 295.128 189.078 292.715 189.55 291.395C190.022 290.075 190.264 289.707 191.064 289.623C191.864 289.54 207.552 290.037 212.989 286.164C213.474 286.77 213.692 287.524 213.601 288.273Z" fill="white"/>
<path opacity="0.56" d="M213.602 288.273C212.74 289.032 211.045 290.731 203.203 292.264C195.193 293.831 189.551 291.399 189.551 291.399C190.039 290.071 190.265 289.711 191.065 289.627C191.865 289.544 207.553 290.041 212.99 286.167C213.474 286.773 213.692 287.525 213.602 288.273Z" fill="#354E4C"/>
<path d="M189.948 286.828C189.948 286.828 201.438 292.139 213.137 283.626C213.137 283.626 214.249 284.931 212.46 286.828C210.671 288.725 207.199 290.785 200.514 291.286C193.83 291.786 190.256 290.709 189.459 289.556C188.663 288.402 189.948 286.828 189.948 286.828Z" fill="#CEEBE9"/>
<path d="M212.706 327.067C212.706 327.234 212.706 327.405 212.686 327.576C212.345 336.301 212.612 349.894 210.774 351.59C209.383 352.876 203.465 353.487 199.009 353.586C198.381 353.586 197.778 353.608 197.228 353.608C196.793 353.821 196.514 353.95 196.465 353.988C195.469 354.012 194.473 353.94 193.494 353.771C192.981 353.631 193.182 353.096 193.76 352.36C195.295 350.399 199.505 346.977 199.916 345.585C200.145 344.799 198.951 338.524 197.359 330.368L197.503 330.402C198.418 330.603 203.584 331.612 208.201 329.989C209.948 329.387 211.5 328.382 212.706 327.067Z" fill="#354E4C"/>
<path d="M197.329 330.361C197.329 330.361 196.167 329.982 196.508 329.496C196.848 329.011 199.947 330.054 203.209 329.929C206.471 329.803 211.469 327.501 212.778 325.532C214.088 323.563 213.743 325.934 213.008 326.723C212.274 327.512 209.451 332.58 197.329 330.361Z" fill="white"/>
<path opacity="0.56" d="M212.904 323.741C212.802 324.837 212.732 326.142 212.674 327.576C212.334 336.302 212.6 349.895 210.762 351.59C209.371 352.876 203.454 353.487 198.997 353.586C201.106 351.731 203.921 348.821 204.98 345.74C206.773 340.551 199.444 308.664 198.825 297.329C198.205 285.993 192.395 240.422 192.395 240.422L194.857 236.136L196.088 235.919L206.195 233.753L210.056 232.52C217.217 230.551 221.399 224.257 221.399 224.257C221.399 224.257 214.833 278.087 212.888 284.513C210.943 290.94 213.614 315.997 212.904 323.741Z" fill="#354E4C"/>
<path opacity="0.18" d="M131.841 81.0289C130.45 79.0182 128.968 77.9294 128.386 78.5251C127.803 79.1207 128.164 79.9856 128.628 81.0024C128.365 80.513 125.591 75.2814 125.78 71.996C125.973 68.5817 122.579 63.1225 122.477 62.9556C122.604 63.1035 125.263 66.2258 125.915 68.6462C126.58 71.1197 127.651 74.2078 129.256 75.5659C130.86 76.9241 131.783 80.7861 131.841 81.0289Z" fill="#354E4C"/>
<path opacity="0.18" d="M155.334 89.6783C154.924 89.5645 143.397 86.4005 141.161 81.0286C138.883 75.558 138.477 71.1117 134.402 68.7634C130.61 66.5782 128.218 64.9241 127.906 64.7041C128.419 64.9886 133.951 68.0274 136.294 68.145C138.756 68.2664 144.202 73.0769 144.284 76.3016C144.374 77.4661 144.799 78.5872 145.515 79.549C145.236 82.952 147.337 86.1539 155.334 89.6783Z" fill="#354E4C"/>
<path d="M133.918 85.1602C134.019 85.3354 134.08 85.5277 134.099 85.7254C134.029 85.5319 133.967 85.346 133.918 85.1602Z" fill="#354E4C"/>
<path opacity="0.18" d="M193.419 72.0074C193.147 72.6406 192.808 73.248 192.409 73.8208C191.387 75.2966 190.719 76.7078 190.612 78.0508C190.509 75.7746 189.824 69.8867 185.61 68.0126C180.324 65.6718 175.773 63.9419 175.773 63.9419C175.773 63.9419 190.501 64.4882 193.419 72.0074Z" fill="#354E4C"/>
<path opacity="0.18" d="M159.392 54.6547C153.36 48.6948 148.949 51.8929 148.107 46.9345C147.172 41.4222 135.858 41.0352 135.858 41.0352C135.858 41.0352 130.725 41.6953 130.327 39.5974C130.167 38.7628 130.622 38.3758 131.467 38.3037C131.467 38.3037 129.826 39.715 133.49 39.9654C137.155 40.2158 147.213 42.0254 149.084 44.4951C150.955 46.9648 152.749 49.5218 156.351 51.1683C157.981 51.9005 158.887 53.3269 159.392 54.6547Z" fill="#354E4C"/>
<path opacity="0.18" d="M129.46 63.5397C128.132 63.2623 126.828 62.8958 125.558 62.4433C118.783 60.0381 118.069 54.3854 117.712 51.0052C117.355 47.6249 116.271 46.9686 116.271 46.9686C117.207 46.7144 118.487 48.1864 119.247 52.3292C120.412 58.7937 127.807 62.7316 129.46 63.5397Z" fill="#354E4C"/>
<path d="M170.365 150.424C162.495 148.591 151.271 142.791 151.271 142.791C151.466 142.346 151.7 141.917 151.973 141.509C152.121 141.383 155.424 138.648 159.109 140.822C162.88 143.049 162.704 145.109 166.18 145.109C169.655 145.109 170.698 148.986 170.365 150.424Z" fill="url(#paint18_linear_2053_3049)"/>
<path opacity="0.18" d="M196.431 149.346L184.719 151.694C184.34 151.767 183.988 151.932 183.7 152.171C183.412 152.41 183.197 152.716 183.078 153.056C183.078 153.056 182.208 149.839 185.618 148.36C189.028 146.88 193.37 146.596 194.133 143.868C194.342 143.174 194.752 142.546 195.319 142.051C196.57 145.226 196.431 149.346 196.431 149.346Z" fill="#354E4C"/>
<path opacity="0.18" d="M160.849 168.505C164.283 175.922 164.772 180.129 162.814 183.164C164.078 180.25 163.475 176.942 159.585 171.824C154.607 165.273 157.742 156.126 165.33 154.517C170.074 153.512 170.861 152.158 170.788 151.281C171.034 152.158 171.034 153.58 169.388 155.075C166.688 157.503 157.414 161.088 160.849 168.505Z" fill="#354E4C"/>
<path opacity="0.18" d="M175.005 186.233C177.184 181.085 172.954 180.637 172.436 173.679C171.911 166.471 179.413 162.928 179.651 162.822C177.779 164.552 174.981 166.782 178.662 175.58C181.382 182.071 178.309 184.302 175.005 186.233Z" fill="#354E4C"/>
<path d="M219.862 157.613C219.736 157.368 219.585 157.134 219.411 156.915C217.359 154.259 214.171 156.733 212.156 154.089C210.141 151.444 210.674 149.84 208.668 149.84C206.661 149.84 205.795 149.043 205.422 148.235C205.048 147.427 199.217 148.736 199.217 148.736C199.217 148.736 197.756 144.1 200.539 142.521C202.779 141.251 203.867 141.459 204.232 140.048C204.63 139.995 205.032 139.973 205.434 139.983C209.751 140.078 208.011 143.159 210.551 145.204C213.091 147.248 212.34 151.941 217.261 153.057C220.728 153.842 220.367 156.262 219.862 157.613Z" fill="url(#paint19_linear_2053_3049)"/>
<path opacity="0.18" d="M214.282 142.593C214.282 142.593 211.208 140.788 212.144 138.701C212.654 137.374 212.958 135.987 213.047 134.581C216.88 137.043 212.259 140.42 214.282 142.593Z" fill="#354E4C"/>
<path opacity="0.18" d="M218.427 170.853C218.394 172.124 219.452 172.795 220.692 173.38C220.692 173.38 216.153 172.211 216.691 168.258C217.228 164.305 225.341 163 226.695 156.915C227.098 155.359 227.211 153.752 227.028 152.161C227.906 153.17 228.587 154.703 228.804 157.01C229.391 163.19 218.513 167.662 218.427 170.853Z" fill="#354E4C"/>
<path opacity="0.18" d="M255.105 142.047C254.97 141.926 252.577 139.771 253.008 135.298C253.456 130.685 253.574 124.52 242.602 124.388C248.187 122.851 255.323 123.094 255.86 129.433C256.488 137.089 253.743 139.433 255.105 142.047Z" fill="#354E4C"/>
<path opacity="0.18" d="M256.261 162.818C249.175 167.268 253.857 172.211 248.239 174.685C243.43 176.802 241.468 178.262 240.75 180.474C240.75 180.19 241.045 176.043 245.346 172.583C249.798 168.998 246.77 164.218 251.85 160.511C256.93 156.805 258.802 151.118 256.774 148.235C258.689 148.879 260.311 150.102 261.379 151.706C261.892 155.769 260.398 160.219 256.261 162.818Z" fill="#354E4C"/>
<path d="M140.074 118.985C140.074 118.985 130.287 117.665 125.563 112.156C120.84 106.648 120.828 102.042 122.482 100.631C124.135 99.2198 124.944 104.099 125.383 105.904C125.822 107.71 127.664 115.358 140.074 118.985Z" fill="#45695E"/>
<path d="M127.16 108.594C127.16 108.594 125.929 106.295 126.183 104.853C126.437 103.412 126.889 105.832 127.16 106.724C127.315 107.339 127.315 107.979 127.16 108.594Z" fill="#45695E"/>
<path d="M202.189 201.112C201.8 201.16 201.405 201.133 201.028 201.032C200.651 200.931 200.3 200.759 200 200.525C199.699 200.292 199.454 200.004 199.281 199.678C199.107 199.353 199.009 198.997 198.993 198.635L198.09 186.074C198.033 185.313 198.288 184.56 198.805 183.966C199.321 183.371 200.06 182.978 200.876 182.864C201.265 182.815 201.661 182.842 202.038 182.943C202.415 183.044 202.765 183.216 203.066 183.449C203.366 183.683 203.611 183.972 203.783 184.297C203.956 184.623 204.053 184.979 204.069 185.341L204.976 197.902C205.032 198.663 204.777 199.416 204.261 200.011C203.744 200.605 203.005 200.998 202.189 201.112Z" fill="white"/>
<path d="M140.229 259.395C140.229 259.395 147.246 262.768 152.49 263.344C157.734 263.921 160.315 264.005 160.139 265.735C159.963 267.464 159.249 276.357 158.178 276.736C157.106 277.116 146.77 275.868 142.67 274.221C138.571 272.575 137.233 271.418 137.336 270.678C137.438 269.938 139.223 259.395 139.223 259.395C139.223 259.395 139.572 258.739 140.229 259.395Z" stroke="white" stroke-miterlimit="10"/>
<path opacity="0.29" d="M134.401 214.853C131.693 214.762 128.635 213.354 125.972 211.025C125.878 210.797 124.056 206.26 121.996 203.798C119.936 201.336 120.354 195.793 120.379 195.615C122.291 200.869 127.651 211.454 139.818 211.268C139.818 211.268 141.82 215.099 134.401 214.853Z" fill="#354E4C"/>
<path d="M131.866 163.437C131.866 163.437 140.893 166.824 145.05 166.851C145.05 166.851 145.305 168.748 144.041 168.934C142.777 169.12 134.221 167.067 132.797 166.187C131.373 165.307 131.866 163.437 131.866 163.437Z" stroke="white" stroke-miterlimit="10"/>
<path d="M136.655 179.283C137.4 179.283 138.005 178.724 138.005 178.035C138.005 177.345 137.4 176.787 136.655 176.787C135.909 176.787 135.305 177.345 135.305 178.035C135.305 178.724 135.909 179.283 136.655 179.283Z" stroke="white" stroke-miterlimit="10"/>
<path d="M134.315 185.011C135.061 185.011 135.665 184.453 135.665 183.763C135.665 183.074 135.061 182.515 134.315 182.515C133.569 182.515 132.965 183.074 132.965 183.763C132.965 184.453 133.569 185.011 134.315 185.011Z" stroke="white" stroke-miterlimit="10"/>
<path d="M202.881 205.046C203.627 205.046 204.231 204.487 204.231 203.798C204.231 203.109 203.627 202.55 202.881 202.55C202.136 202.55 201.531 203.109 201.531 203.798C201.531 204.487 202.136 205.046 202.881 205.046Z" stroke="white" stroke-miterlimit="10"/>
<path d="M222.735 200.27C223.48 200.27 224.085 199.711 224.085 199.022C224.085 198.332 223.48 197.773 222.735 197.773C221.989 197.773 221.385 198.332 221.385 199.022C221.385 199.711 221.989 200.27 222.735 200.27Z" stroke="white" stroke-miterlimit="10"/>
<path opacity="0.25" d="M119.855 100.366C119.855 100.366 136.097 107.741 143.57 118.594C151.043 129.448 151.527 120.928 149.639 118.594C147.752 116.261 144.588 108.048 136.791 102.782C128.994 97.5164 121.148 94.8912 119.855 100.366Z" fill="white"/>
<path opacity="0.25" d="M149.232 126.049C149.232 126.049 149.425 124.118 151.283 124.126C153.142 124.133 153.807 125.833 153.097 126.622C152.387 127.411 148.772 128.211 149.232 126.049Z" fill="white"/>
<path d="M170.378 354.2C170.251 355.49 170.099 356.291 169.968 356.476C169.394 357.36 156.734 359.31 152.323 359.31C149.241 359.31 147.288 358.878 146.91 358.017C146.91 358.032 165.573 357.455 170.378 354.2Z" fill="#CEEBE9"/>
<path d="M211.644 351.116C211.548 351.383 211.394 351.63 211.193 351.841C208.936 353.935 195.37 354.284 193.482 353.757C192.969 353.616 193.17 353.081 193.749 352.345C193.749 352.345 203.733 353.521 211.644 351.116Z" fill="#CEEBE9"/>
<path d="M228.828 353.043H218.159C218.159 353.043 216.017 348.954 218.159 346.484C220.301 344.014 221.938 335.103 221.938 335.103L225.742 327.826C225.742 327.826 231.795 320.763 232.866 319.279C233.937 317.796 235.263 323.961 240.749 326.442C246.236 328.923 249.174 336.051 249.174 336.051L228.828 353.043Z" fill="url(#paint20_linear_2053_3049)"/>
<path opacity="0.18" d="M147.049 63.2056C144.998 61.8665 142.991 60.7511 141.887 57.7616C139.659 51.7486 135.383 52.4883 131.489 50.4283C130.579 49.9672 129.765 49.361 129.084 48.6377C132.301 50.2083 137.755 51.6347 139.035 52.2417C140.775 53.065 142.544 57.0181 143.446 59.3284C143.951 60.66 145.671 62.17 147.049 63.2056Z" fill="#354E4C"/>
<path d="M90.7116 36.4904C90.6172 36.331 87.8391 31.5395 91.561 26.7974L92.6074 27.8331C92.6074 27.8331 89.2179 30.9022 90.7116 36.4904Z" fill="url(#paint21_linear_2053_3049)"/>
<path d="M112.948 14.8242C106.85 13.6557 103.657 16.9032 103.657 16.9032L102.537 16.0117C102.537 16.0117 107.379 12.6997 112.944 14.8204L112.948 14.8242Z" fill="url(#paint22_linear_2053_3049)"/>
<path d="M135.564 123.564C135.716 123.564 135.839 123.45 135.839 123.31C135.839 123.169 135.716 123.056 135.564 123.056C135.412 123.056 135.289 123.169 135.289 123.31C135.289 123.45 135.412 123.564 135.564 123.564Z" fill="white"/>
<path d="M364.656 353.044H228.828C228.828 339.14 236.313 337.042 240.318 333.195C241.349 332.221 242.29 331.171 243.133 330.054C244.258 328.565 245.114 326.917 245.669 325.175C246.203 323.695 247.54 322.952 247.54 320.243C247.54 317.534 250.212 317.773 249.469 311.096C249.365 310.098 249.377 309.092 249.506 308.095C250.249 301.703 255.05 293.641 261.71 288.19C269.466 281.847 275.346 255.48 277.755 247.57C280.164 239.66 285.24 242.874 287.111 245.84C288.982 248.807 297.538 263.637 306.361 267.085C315.184 270.534 320.268 279.942 320.535 287.932C320.579 288.813 320.748 289.686 321.039 290.527C322.27 294.21 325.492 298.547 328.906 302.587C328.908 302.596 328.908 302.605 328.906 302.613C332.394 306.737 336.067 310.554 337.975 313.042C338.254 313.422 338.496 313.741 338.693 314.044C341.902 318.976 347.249 323.934 355.267 328.377C363.286 332.819 364.656 353.044 364.656 353.044Z" fill="url(#paint23_linear_2053_3049)"/>
<path d="M91.4219 359.326H140.074C140.074 359.326 142.154 355.498 138.843 353.586C135.531 351.674 134.887 336.302 131.604 334.101C128.321 331.901 125.379 327.838 125.379 327.838C125.379 327.838 127.956 317.052 118.514 328.43C109.071 339.807 108.571 345.74 105.612 347.47C102.653 349.2 97.0355 347.592 95.9686 351.116C94.9017 354.641 91.4219 359.326 91.4219 359.326Z" fill="url(#paint24_linear_2053_3049)"/>
<path d="M282.343 242.597C282.343 242.597 277.517 257.013 278.055 265.405C278.592 273.796 276.179 285.997 274.846 288.926C273.512 291.855 264.119 295.705 261.46 300.948C258.801 306.191 262.543 291.688 267.357 286.828C272.17 281.968 276.471 246.736 282.343 242.597Z" fill="url(#paint25_linear_2053_3049)"/>
<path opacity="0.56" d="M260.578 302.074C260.578 302.074 254.792 312.37 253.741 316.323C252.691 320.277 243.039 330.91 243.039 330.91C243.039 330.91 243.08 330.599 243.158 330.049C244.283 328.56 245.139 326.913 245.694 325.17C246.228 323.691 247.565 322.947 247.565 320.239C247.565 317.53 250.237 317.769 249.494 311.092C249.39 310.093 249.402 309.087 249.531 308.091C253.331 305.25 260.578 302.074 260.578 302.074Z" fill="#354E4C"/>
<path opacity="0.4" d="M262.99 353.043C262.99 353.043 267.27 324.238 270.299 320.774C273.327 317.31 277.607 299.464 279.031 296.115C280.455 292.765 282.441 288.812 282.343 287.078C282.244 285.344 282.343 282.047 282.343 282.047C282.343 282.047 277.607 293.205 275.469 294.567C273.331 295.929 259.781 306.293 258.71 309.742C257.639 313.19 252.473 331.567 244.093 336.063C235.714 340.558 229.448 346.814 229.448 346.814L228.828 353.051L262.99 353.043Z" fill="#354E4C"/>
<path opacity="0.4" d="M364.658 353.044H275.828C275.828 353.044 281.709 325.061 283.313 321.935C284.918 318.809 285.989 292.678 288.648 288.929C291.307 285.181 290.966 273.811 290.252 271.505C289.538 269.198 285.796 261.869 285.796 259.107C285.796 256.345 284.565 247.115 284.565 247.115C284.565 247.115 297.22 264.987 302.391 267.506C307.561 270.025 316.65 278.129 317.898 283.629C318.197 284.957 319.326 287.446 321.054 290.538C323.404 294.704 326.031 298.732 328.92 302.598C328.922 302.607 328.922 302.616 328.92 302.625C331.639 306.318 334.672 309.805 337.989 313.054C338.268 313.433 338.51 313.752 338.707 314.055C341.916 318.987 347.263 323.946 355.281 328.388C363.3 332.83 364.658 353.044 364.658 353.044Z" fill="#354E4C"/>
<path opacity="0.56" d="M221.939 222.998C221.804 223.435 221.629 223.86 221.414 224.269C221.319 225.027 214.848 278.14 212.903 284.517C210.958 290.894 213.613 316.005 212.903 323.737C212.812 324.7 212.747 325.827 212.693 327.064C212.693 327.231 212.693 327.401 212.673 327.572C212.332 336.298 212.599 349.891 210.761 351.587C209.37 352.873 203.452 353.483 198.996 353.582C198.368 353.582 197.765 353.605 197.215 353.605C199.858 352.307 208.364 347.88 207.909 344.724C207.691 343.206 208.036 337.22 208.171 329.966C208.364 319.419 208.118 306.187 205.049 300.075C199.87 289.768 195.249 263.428 201.585 249.933C203.83 245.142 205.163 239.345 205.951 233.856C206.218 231.981 206.423 230.149 206.579 228.4C206.682 227.228 206.764 226.09 206.825 225.012C206.899 223.772 206.953 222.607 206.985 221.537C206.985 221.298 206.985 221.063 207.006 220.832C207.006 220.073 207.035 219.405 207.039 218.783C207.039 216.359 206.994 214.883 206.994 214.883L220.47 210.099C220.593 212.44 220.544 211.617 220.581 212.451C220.581 212.831 220.609 213.058 220.609 213.058C221.284 213.728 221.729 214.568 221.89 215.471C221.89 215.471 222.431 217.694 221.931 219.549C221.43 221.404 222.439 221.404 221.939 222.998Z" fill="#354E4C"/>
<path opacity="0.56" d="M194.864 236.144L184.072 262.131C183.637 260.37 183.251 258.716 182.902 257.233L194.864 236.144Z" fill="#354E4C"/>
<path opacity="0.56" d="M165.306 291.285C164.772 296.065 167.091 316.005 169.052 329.849C169.081 330.05 169.11 330.251 169.134 330.448C169.188 330.827 169.233 331.184 169.282 331.552C170.924 344.621 170.103 355.259 169.586 356.048C169.175 356.701 161.711 357.972 156.59 358.469C158.642 358.165 165.999 356.109 165.761 342.288C165.654 338.965 165.362 335.648 164.887 332.352C162.651 315.444 157.251 292.139 162.048 281.862C167.891 269.365 181.769 245.506 181.65 242.604C181.531 239.702 189.931 236.758 189.931 236.758L194.856 236.151V236.185C193.994 237.653 165.835 286.57 165.306 291.285Z" fill="#354E4C"/>
<path opacity="0.56" d="M221.939 222.998C221.804 223.435 221.629 223.86 221.414 224.269C220.244 226.496 216.768 230.718 205.951 233.833C201.163 235.158 196.256 236.084 191.289 236.603C190.834 236.656 190.383 236.705 189.931 236.747C173.107 238.477 159.975 236.132 152.49 233.791C161.551 233.947 160.406 231.894 165.761 230.165C171.116 228.435 178.72 229.683 185.606 229.144C192.492 228.605 206.124 223.624 212.813 220.798C215.441 219.734 217.823 218.21 219.826 216.31C220.474 215.702 221.034 215.018 221.492 214.276C221.695 214.656 221.834 215.063 221.902 215.483C221.902 215.483 222.444 217.706 221.943 219.561C221.442 221.416 222.44 221.405 221.939 222.998Z" fill="#354E4C"/>
<rect y="243" width="414" height="144" fill="url(#paint26_linear_2053_3049)"/>
<defs>
<linearGradient id="paint0_linear_2053_3049" x1="221.415" y1="307.204" x2="221.415" y2="386.603" gradientUnits="userSpaceOnUse">
<stop stop-color="white"/>
<stop offset="0.38" stop-color="#99D0B5"/>
<stop offset="0.99" stop-color="#5F9D84"/>
</linearGradient>
<linearGradient id="paint1_linear_2053_3049" x1="109.324" y1="81.4235" x2="177.527" y2="136.643" gradientUnits="userSpaceOnUse">
<stop offset="0.41" stop-color="#99D0B5"/>
<stop offset="1" stop-color="#45695E"/>
</linearGradient>
<linearGradient id="paint2_linear_2053_3049" x1="37309.6" y1="16396.3" x2="51698.9" y2="16396.3" gradientUnits="userSpaceOnUse">
<stop stop-color="white"/>
<stop offset="0.38" stop-color="#99D0B5"/>
<stop offset="0.99" stop-color="#5F9D84"/>
</linearGradient>
<linearGradient id="paint3_linear_2053_3049" x1="118.233" y1="102.926" x2="158.971" y2="129.718" gradientUnits="userSpaceOnUse">
<stop stop-color="#45695E"/>
<stop offset="0.87" stop-color="#1B232A"/>
</linearGradient>
<linearGradient id="paint4_linear_2053_3049" x1="2709.36" y1="2492.87" x2="2812.6" y2="2508.32" gradientUnits="userSpaceOnUse">
<stop stop-color="#45695E"/>
<stop offset="0.87" stop-color="#1B232A"/>
</linearGradient>
<linearGradient id="paint5_linear_2053_3049" x1="22837.8" y1="29729.9" x2="31087.9" y2="29729.9" gradientUnits="userSpaceOnUse">
<stop stop-color="white"/>
<stop offset="0.38" stop-color="#99D0B5"/>
<stop offset="0.99" stop-color="#5F9D84"/>
</linearGradient>
<linearGradient id="paint6_linear_2053_3049" x1="21288.6" y1="6986.42" x2="26809" y2="6986.42" gradientUnits="userSpaceOnUse">
<stop stop-color="white"/>
<stop offset="0.38" stop-color="#99D0B5"/>
<stop offset="0.99" stop-color="#5F9D84"/>
</linearGradient>
<linearGradient id="paint7_linear_2053_3049" x1="48324.7" y1="39131.1" x2="67600.9" y2="54314.8" gradientUnits="userSpaceOnUse">
<stop stop-color="white"/>
<stop offset="0.38" stop-color="#99D0B5"/>
<stop offset="0.99" stop-color="#5F9D84"/>
</linearGradient>
<linearGradient id="paint8_linear_2053_3049" x1="33743.5" y1="41180.1" x2="48863.3" y2="46641.7" gradientUnits="userSpaceOnUse">
<stop stop-color="white"/>
<stop offset="0.38" stop-color="#99D0B5"/>
<stop offset="0.99" stop-color="#5F9D84"/>
</linearGradient>
<linearGradient id="paint9_linear_2053_3049" x1="188.253" y1="139.19" x2="191.365" y2="211.26" gradientUnits="userSpaceOnUse">
<stop stop-color="#F8BA67"/>
<stop offset="0.38" stop-color="#99D0B5"/>
<stop offset="0.99" stop-color="#518273"/>
</linearGradient>
<linearGradient id="paint10_linear_2053_3049" x1="168.191" y1="142.521" x2="168.191" y2="220.786" gradientUnits="userSpaceOnUse">
<stop stop-color="#F8BA67"/>
<stop offset="0.38" stop-color="#99D0B5"/>
<stop offset="0.99" stop-color="#6FC29F"/>
</linearGradient>
<linearGradient id="paint11_linear_2053_3049" x1="12586.5" y1="5316.33" x2="15460.3" y2="8637.46" gradientUnits="userSpaceOnUse">
<stop stop-color="white"/>
<stop offset="0.38" stop-color="#99D0B5"/>
<stop offset="0.99" stop-color="#5F9D84"/>
</linearGradient>
<linearGradient id="paint12_linear_2053_3049" x1="101.274" y1="25.0597" x2="118.338" y2="41.0344" gradientUnits="userSpaceOnUse">
<stop stop-color="#EE7671"/>
<stop offset="1" stop-color="#1B232A" stop-opacity="0"/>
</linearGradient>
<linearGradient id="paint13_linear_2053_3049" x1="146.532" y1="59.1921" x2="152.606" y2="94.0821" gradientUnits="userSpaceOnUse">
<stop stop-color="white"/>
<stop offset="1" stop-color="#B4E4F4"/>
</linearGradient>
<linearGradient id="paint14_linear_2053_3049" x1="33276.3" y1="33126.6" x2="39461" y2="32508.4" gradientUnits="userSpaceOnUse">
<stop stop-color="white"/>
<stop offset="0.38" stop-color="#99D0B5"/>
<stop offset="0.99" stop-color="#5F9D84"/>
</linearGradient>
<linearGradient id="paint15_linear_2053_3049" x1="20838.1" y1="20455.2" x2="23285.6" y2="20211.1" gradientUnits="userSpaceOnUse">
<stop stop-color="white"/>
<stop offset="0.38" stop-color="#99D0B5"/>
<stop offset="0.99" stop-color="#5F9D84"/>
</linearGradient>
<linearGradient id="paint16_linear_2053_3049" x1="22998.8" y1="43778.6" x2="28045.8" y2="44907.7" gradientUnits="userSpaceOnUse">
<stop stop-color="white"/>
<stop offset="0.38" stop-color="#99D0B5"/>
<stop offset="0.99" stop-color="#5F9D84"/>
</linearGradient>
<linearGradient id="paint17_linear_2053_3049" x1="18389.8" y1="25715.5" x2="21950.4" y2="25933.1" gradientUnits="userSpaceOnUse">
<stop stop-color="white"/>
<stop offset="0.38" stop-color="#99D0B5"/>
<stop offset="0.99" stop-color="#5F9D84"/>
</linearGradient>
<linearGradient id="paint18_linear_2053_3049" x1="9958.27" y1="5558.27" x2="10634.1" y2="6018.32" gradientUnits="userSpaceOnUse">
<stop stop-color="white"/>
<stop offset="0.38" stop-color="#99D0B5"/>
<stop offset="0.99" stop-color="#5F9D84"/>
</linearGradient>
<linearGradient id="paint19_linear_2053_3049" x1="13218.1" y1="9499.06" x2="15020.4" y2="9705.52" gradientUnits="userSpaceOnUse">
<stop stop-color="white"/>
<stop offset="0.38" stop-color="#99D0B5"/>
<stop offset="0.99" stop-color="#5F9D84"/>
</linearGradient>
<linearGradient id="paint20_linear_2053_3049" x1="22586.9" y1="32590.4" x2="22511.4" y2="36261.4" gradientUnits="userSpaceOnUse">
<stop stop-color="white"/>
<stop offset="0.38" stop-color="#99D0B5"/>
<stop offset="0.99" stop-color="#5F9D84"/>
</linearGradient>
<linearGradient id="paint21_linear_2053_3049" x1="993.131" y1="1731.7" x2="1464.41" y2="1879.94" gradientUnits="userSpaceOnUse">
<stop stop-color="#45695E"/>
<stop offset="0.87" stop-color="#1B232A"/>
</linearGradient>
<linearGradient id="paint22_linear_2053_3049" x1="3696.53" y1="390.314" x2="3812.85" y2="834.062" gradientUnits="userSpaceOnUse">
<stop stop-color="#45695E"/>
<stop offset="0.87" stop-color="#1B232A"/>
</linearGradient>
<linearGradient id="paint23_linear_2053_3049" x1="116062" y1="86565.8" x2="116062" y2="118717" gradientUnits="userSpaceOnUse">
<stop stop-color="white"/>
<stop offset="0.38" stop-color="#99D0B5"/>
<stop offset="0.99" stop-color="#5F9D84"/>
</linearGradient>
<linearGradient id="paint24_linear_2053_3049" x1="20761.6" y1="34628.6" x2="20568.3" y2="39910.2" gradientUnits="userSpaceOnUse">
<stop stop-color="white"/>
<stop offset="0.38" stop-color="#99D0B5"/>
<stop offset="0.99" stop-color="#5F9D84"/>
</linearGradient>
<linearGradient id="paint25_linear_2053_3049" x1="17849" y1="45996.6" x2="12442.7" y2="57815.3" gradientUnits="userSpaceOnUse">
<stop stop-color="white"/>
<stop offset="0.38" stop-color="#99D0B5"/>
<stop offset="0.99" stop-color="#5F9D84"/>
</linearGradient>
<linearGradient id="paint26_linear_2053_3049" x1="207" y1="243" x2="207" y2="387" gradientUnits="userSpaceOnUse">
<stop stop-color="#1B232A" stop-opacity="0"/>
<stop offset="1" stop-color="#1B232A"/>
</linearGradient>
</defs>
</svg>
