<svg width="23" height="23" viewBox="0 0 23 23" fill="none" xmlns="http://www.w3.org/2000/svg">
<g clip-path="url(#clip0_858_5547)">
<path d="M19.3295 5.52317H16.3841L14.7273 3.68226H9.20455V5.52317H13.8989L15.6477 7.36408H19.3295V18.4095H4.60227V10.1254H2.76136V18.4095C2.76136 19.422 3.58977 20.2504 4.60227 20.2504H19.3295C20.342 20.2504 21.1705 19.422 21.1705 18.4095V7.36408C21.1705 6.35158 20.342 5.52317 19.3295 5.52317ZM7.36364 12.8868C7.36364 16.9828 12.3249 19.0446 15.2243 16.1452C18.1238 13.2458 16.0619 8.28453 11.9659 8.28453C9.42545 8.28453 7.36364 10.3464 7.36364 12.8868ZM11.9659 10.1254C13.4755 10.1715 14.6812 11.3773 14.7273 12.8868C14.6812 14.3964 13.4755 15.6021 11.9659 15.6482C10.4564 15.6021 9.25057 14.3964 9.20455 12.8868C9.25057 11.3773 10.4564 10.1715 11.9659 10.1254ZM4.60227 5.52317H7.36364V3.68226H4.60227V0.920898H2.76136V3.68226H0V5.52317H2.76136V8.28453H4.60227" fill="#FCFCFE"/>
</g>
<defs>
<clipPath id="clip0_858_5547">
<rect width="22.0909" height="22.0909" fill="white"/>
</clipPath>
</defs>
</svg>
