<svg width="55" height="54" viewBox="0 0 55 54" fill="none" xmlns="http://www.w3.org/2000/svg">
<path d="M16.75 26.8096H26.75" stroke="#5ED5A8" stroke-width="1.5" stroke-miterlimit="10" stroke-linecap="round" stroke-linejoin="round"/>
<g filter="url(#filter0_d_858_6648)">
<path d="M18.97 23.25H24.53C26.31 23.25 26.75 23.69 26.75 25.45V29.56C26.75 31.32 26.31 31.76 24.53 31.76H18.97C17.19 31.76 16.75 31.32 16.75 29.56V25.45C16.75 23.69 17.19 23.25 18.97 23.25Z" stroke="#5ED5A8" stroke-width="1.5" stroke-linecap="round" stroke-linejoin="round" shape-rendering="crispEdges"/>
</g>
<path d="M36.75 24.75C36.75 28.62 33.62 31.75 29.75 31.75L30.8 30" stroke="#777777" stroke-width="1.5" stroke-linecap="round" stroke-linejoin="round"/>
<path d="M16.75 18.75C16.75 14.88 19.88 11.75 23.75 11.75L22.7 13.5" stroke="#777777" stroke-width="1.5" stroke-linecap="round" stroke-linejoin="round"/>
<g filter="url(#filter1_d_858_6648)">
<path d="M33.25 20.75C35.7353 20.75 37.75 18.7353 37.75 16.25C37.75 13.7647 35.7353 11.75 33.25 11.75C30.7647 11.75 28.75 13.7647 28.75 16.25C28.75 18.7353 30.7647 20.75 33.25 20.75Z" stroke="#5ED5A8" stroke-width="1.5" stroke-linecap="round" stroke-linejoin="round" shape-rendering="crispEdges"/>
</g>
<defs>
<filter id="filter0_d_858_6648" x="0" y="11.5" width="43.5" height="42.0098" filterUnits="userSpaceOnUse" color-interpolation-filters="sRGB">
<feFlood flood-opacity="0" result="BackgroundImageFix"/>
<feColorMatrix in="SourceAlpha" type="matrix" values="0 0 0 0 0 0 0 0 0 0 0 0 0 0 0 0 0 0 127 0" result="hardAlpha"/>
<feOffset dy="5"/>
<feGaussianBlur stdDeviation="8"/>
<feComposite in2="hardAlpha" operator="out"/>
<feColorMatrix type="matrix" values="0 0 0 0 0.368627 0 0 0 0 0.835294 0 0 0 0 0.658824 0 0 0 0.25 0"/>
<feBlend mode="normal" in2="BackgroundImageFix" result="effect1_dropShadow_858_6648"/>
<feBlend mode="normal" in="SourceGraphic" in2="effect1_dropShadow_858_6648" result="shape"/>
</filter>
<filter id="filter1_d_858_6648" x="12" y="0" width="42.5" height="42.5" filterUnits="userSpaceOnUse" color-interpolation-filters="sRGB">
<feFlood flood-opacity="0" result="BackgroundImageFix"/>
<feColorMatrix in="SourceAlpha" type="matrix" values="0 0 0 0 0 0 0 0 0 0 0 0 0 0 0 0 0 0 127 0" result="hardAlpha"/>
<feOffset dy="5"/>
<feGaussianBlur stdDeviation="8"/>
<feComposite in2="hardAlpha" operator="out"/>
<feColorMatrix type="matrix" values="0 0 0 0 0.368627 0 0 0 0 0.835294 0 0 0 0 0.658824 0 0 0 0.25 0"/>
<feBlend mode="normal" in2="BackgroundImageFix" result="effect1_dropShadow_858_6648"/>
<feBlend mode="normal" in="SourceGraphic" in2="effect1_dropShadow_858_6648" result="shape"/>
</filter>
</defs>
</svg>
