<svg width="46" height="54" viewBox="0 0 46 54" fill="none" xmlns="http://www.w3.org/2000/svg">
<g filter="url(#filter0_d_858_6658)">
<path d="M20.9741 12.5525L17.2341 17.2125C16.3841 18.2725 16.6841 19.6325 17.8941 20.2325L21.6241 22.1025C22.1141 22.3425 22.9141 22.3425 23.4041 22.1025L27.1341 20.2325C28.3441 19.6225 28.6441 18.2625 27.7941 17.2125L24.0641 12.5525C23.2241 11.4825 21.8241 11.4825 20.9741 12.5525Z" stroke="#5ED5A8" stroke-width="1.5" stroke-miterlimit="10" stroke-linecap="round" stroke-linejoin="round"/>
<path d="M22.5234 11.8027V17.0627" stroke="#5ED5A8" stroke-width="1.5" stroke-miterlimit="10" stroke-linecap="round" stroke-linejoin="round"/>
<path d="M18.3242 20.2125L22.5242 17.0625L26.7242 20.2125" stroke="#5ED5A8" stroke-width="1.5" stroke-miterlimit="10" stroke-linecap="round" stroke-linejoin="round"/>
<path d="M19.2935 23.9321L20.9035 24.6521C21.9335 25.1121 23.1135 25.1121 24.1535 24.6521L25.7635 23.9321C27.2035 23.2921 28.5335 25.0321 27.5335 26.2521L24.0735 30.4821C23.2235 31.5221 21.8335 31.5221 20.9735 30.4821L17.5235 26.2521C16.5135 25.0321 17.8435 23.2921 19.2935 23.9321Z" stroke="#5ED5A8" stroke-width="1.5" stroke-miterlimit="10" stroke-linecap="round" stroke-linejoin="round"/>
</g>
<defs>
<filter id="filter0_d_858_6658" x="0" y="0" width="45.0273" height="53.0117" filterUnits="userSpaceOnUse" color-interpolation-filters="sRGB">
<feFlood flood-opacity="0" result="BackgroundImageFix"/>
<feColorMatrix in="SourceAlpha" type="matrix" values="0 0 0 0 0 0 0 0 0 0 0 0 0 0 0 0 0 0 127 0" result="hardAlpha"/>
<feOffset dy="5"/>
<feGaussianBlur stdDeviation="8"/>
<feComposite in2="hardAlpha" operator="out"/>
<feColorMatrix type="matrix" values="0 0 0 0 0.368627 0 0 0 0 0.835294 0 0 0 0 0.658824 0 0 0 0.25 0"/>
<feBlend mode="normal" in2="BackgroundImageFix" result="effect1_dropShadow_858_6658"/>
<feBlend mode="normal" in="SourceGraphic" in2="effect1_dropShadow_858_6658" result="shape"/>
</filter>
</defs>
</svg>
