<svg width="54" height="54" viewBox="0 0 54 54" fill="none" xmlns="http://www.w3.org/2000/svg">
<g filter="url(#filter0_d_858_6616)">
<path d="M23.75 31.75H29.75C34.75 31.75 36.75 29.75 36.75 24.75V18.75C36.75 13.75 34.75 11.75 29.75 11.75H23.75C18.75 11.75 16.75 13.75 16.75 18.75V24.75C16.75 29.75 18.75 31.75 23.75 31.75Z" stroke="#5ED5A8" stroke-width="1.5" stroke-linecap="round" stroke-linejoin="round" shape-rendering="crispEdges"/>
</g>
<path d="M22.75 28.75H30.75C32.75 28.75 33.75 27.75 33.75 25.75V17.75C33.75 15.75 32.75 14.75 30.75 14.75H22.75C20.75 14.75 19.75 15.75 19.75 17.75V25.75C19.75 27.75 20.75 28.75 22.75 28.75Z" stroke="#777777" stroke-width="1.5" stroke-linecap="round" stroke-linejoin="round"/>
<path d="M19.75 19.25H22.23C23.61 19.25 24.73 20.37 24.73 21.75C24.73 23.13 23.61 24.25 22.23 24.25H19.75" stroke="#777777" stroke-width="1.5" stroke-linecap="round" stroke-linejoin="round"/>
<g filter="url(#filter1_d_858_6616)">
<path d="M33.75 19.7402H30.75" stroke="#5ED5A8" stroke-width="1.5" stroke-linecap="round" stroke-linejoin="round"/>
</g>
<g filter="url(#filter2_d_858_6616)">
<path d="M33.75 23.75H30.75" stroke="#5ED5A8" stroke-width="1.5" stroke-linecap="round" stroke-linejoin="round"/>
</g>
<path d="M21.9512 21.75H22.0512" stroke="#777777" stroke-width="2" stroke-miterlimit="10" stroke-linecap="round" stroke-linejoin="round"/>
<defs>
<filter id="filter0_d_858_6616" x="0" y="0" width="53.5" height="53.5" filterUnits="userSpaceOnUse" color-interpolation-filters="sRGB">
<feFlood flood-opacity="0" result="BackgroundImageFix"/>
<feColorMatrix in="SourceAlpha" type="matrix" values="0 0 0 0 0 0 0 0 0 0 0 0 0 0 0 0 0 0 127 0" result="hardAlpha"/>
<feOffset dy="5"/>
<feGaussianBlur stdDeviation="8"/>
<feComposite in2="hardAlpha" operator="out"/>
<feColorMatrix type="matrix" values="0 0 0 0 0.368627 0 0 0 0 0.835294 0 0 0 0 0.658824 0 0 0 0.25 0"/>
<feBlend mode="normal" in2="BackgroundImageFix" result="effect1_dropShadow_858_6616"/>
<feBlend mode="normal" in="SourceGraphic" in2="effect1_dropShadow_858_6616" result="shape"/>
</filter>
<filter id="filter1_d_858_6616" x="14" y="7.99023" width="36.5" height="33.5" filterUnits="userSpaceOnUse" color-interpolation-filters="sRGB">
<feFlood flood-opacity="0" result="BackgroundImageFix"/>
<feColorMatrix in="SourceAlpha" type="matrix" values="0 0 0 0 0 0 0 0 0 0 0 0 0 0 0 0 0 0 127 0" result="hardAlpha"/>
<feOffset dy="5"/>
<feGaussianBlur stdDeviation="8"/>
<feComposite in2="hardAlpha" operator="out"/>
<feColorMatrix type="matrix" values="0 0 0 0 0.368627 0 0 0 0 0.835294 0 0 0 0 0.658824 0 0 0 0.25 0"/>
<feBlend mode="normal" in2="BackgroundImageFix" result="effect1_dropShadow_858_6616"/>
<feBlend mode="normal" in="SourceGraphic" in2="effect1_dropShadow_858_6616" result="shape"/>
</filter>
<filter id="filter2_d_858_6616" x="14" y="12" width="36.5" height="33.5" filterUnits="userSpaceOnUse" color-interpolation-filters="sRGB">
<feFlood flood-opacity="0" result="BackgroundImageFix"/>
<feColorMatrix in="SourceAlpha" type="matrix" values="0 0 0 0 0 0 0 0 0 0 0 0 0 0 0 0 0 0 127 0" result="hardAlpha"/>
<feOffset dy="5"/>
<feGaussianBlur stdDeviation="8"/>
<feComposite in2="hardAlpha" operator="out"/>
<feColorMatrix type="matrix" values="0 0 0 0 0.368627 0 0 0 0 0.835294 0 0 0 0 0.658824 0 0 0 0.25 0"/>
<feBlend mode="normal" in2="BackgroundImageFix" result="effect1_dropShadow_858_6616"/>
<feBlend mode="normal" in="SourceGraphic" in2="effect1_dropShadow_858_6616" result="shape"/>
</filter>
</defs>
</svg>
