<svg width="50" height="50" viewBox="0 0 50 50" fill="none" xmlns="http://www.w3.org/2000/svg">
<g filter="url(#filter0_d_858_6655)">
<path d="M24.74 27.73C29.1528 27.73 32.73 24.1528 32.73 19.74C32.73 15.3272 29.1528 11.75 24.74 11.75C20.3272 11.75 16.75 15.3272 16.75 19.74C16.75 24.1528 20.3272 27.73 24.74 27.73Z" stroke="#5ED5A8" stroke-width="1.5" stroke-linecap="round" stroke-linejoin="round" shape-rendering="crispEdges"/>
</g>
<g filter="url(#filter1_d_858_6655)">
<path d="M22.3047 17.5283H25.0869C25.7002 17.5283 26.198 18.0883 26.198 18.6394C26.198 19.2528 25.7002 19.7505 25.0869 19.7505H22.3047V17.5283Z" stroke="#5ED5A8" stroke-width="1.5" stroke-miterlimit="10" stroke-linecap="round" stroke-linejoin="round"/>
<path d="M22.3047 19.75H25.478C26.1802 19.75 26.7491 20.2478 26.7491 20.8611C26.7491 21.4744 26.1802 21.9722 25.478 21.9722H22.3047V19.75Z" stroke="#5ED5A8" stroke-width="1.5" stroke-miterlimit="10" stroke-linecap="round" stroke-linejoin="round"/>
<path d="M23.8691 21.9727V23.0838" stroke="#5ED5A8" stroke-width="1.5" stroke-miterlimit="10" stroke-linecap="round" stroke-linejoin="round"/>
<path d="M23.8691 16.417V17.5281" stroke="#5ED5A8" stroke-width="1.5" stroke-miterlimit="10" stroke-linecap="round" stroke-linejoin="round"/>
<path d="M23.3627 17.5283H21.416" stroke="#5ED5A8" stroke-width="1.5" stroke-miterlimit="10" stroke-linecap="round" stroke-linejoin="round"/>
<path d="M23.3627 21.9727H21.416" stroke="#5ED5A8" stroke-width="1.5" stroke-miterlimit="10" stroke-linecap="round" stroke-linejoin="round"/>
</g>
<path d="M27.7305 29.63C28.6305 30.9 30.1005 31.73 31.7805 31.73C34.5105 31.73 36.7305 29.51 36.7305 26.78C36.7305 25.12 35.9105 23.65 34.6605 22.75" stroke="#777777" stroke-width="1.5" stroke-linecap="round" stroke-linejoin="round"/>
<defs>
<filter id="filter0_d_858_6655" x="0" y="0" width="49.4805" height="49.4805" filterUnits="userSpaceOnUse" color-interpolation-filters="sRGB">
<feFlood flood-opacity="0" result="BackgroundImageFix"/>
<feColorMatrix in="SourceAlpha" type="matrix" values="0 0 0 0 0 0 0 0 0 0 0 0 0 0 0 0 0 0 127 0" result="hardAlpha"/>
<feOffset dy="5"/>
<feGaussianBlur stdDeviation="8"/>
<feComposite in2="hardAlpha" operator="out"/>
<feColorMatrix type="matrix" values="0 0 0 0 0.368627 0 0 0 0 0.835294 0 0 0 0 0.658824 0 0 0 0.25 0"/>
<feBlend mode="normal" in2="BackgroundImageFix" result="effect1_dropShadow_858_6655"/>
<feBlend mode="normal" in="SourceGraphic" in2="effect1_dropShadow_858_6655" result="shape"/>
</filter>
<filter id="filter1_d_858_6655" x="4.66602" y="4.66699" width="38.834" height="40.167" filterUnits="userSpaceOnUse" color-interpolation-filters="sRGB">
<feFlood flood-opacity="0" result="BackgroundImageFix"/>
<feColorMatrix in="SourceAlpha" type="matrix" values="0 0 0 0 0 0 0 0 0 0 0 0 0 0 0 0 0 0 127 0" result="hardAlpha"/>
<feOffset dy="5"/>
<feGaussianBlur stdDeviation="8"/>
<feComposite in2="hardAlpha" operator="out"/>
<feColorMatrix type="matrix" values="0 0 0 0 0.368627 0 0 0 0 0.835294 0 0 0 0 0.658824 0 0 0 0.25 0"/>
<feBlend mode="normal" in2="BackgroundImageFix" result="effect1_dropShadow_858_6655"/>
<feBlend mode="normal" in="SourceGraphic" in2="effect1_dropShadow_858_6655" result="shape"/>
</filter>
</defs>
</svg>
