<svg width="47" height="54" viewBox="0 0 47 54" fill="none" xmlns="http://www.w3.org/2000/svg">
<g filter="url(#filter0_d_858_6652)">
<path d="M29.75 22.4004V26.1004C29.75 29.2204 26.84 31.7504 23.25 31.7504C19.66 31.7504 16.75 29.2204 16.75 26.1004V22.4004C16.75 25.5204 19.66 27.7504 23.25 27.7504C26.84 27.7504 29.75 25.5204 29.75 22.4004Z" stroke="#5ED5A8" stroke-width="1.5" stroke-linecap="round" stroke-linejoin="round"/>
<path d="M29.75 17.4C29.75 18.31 29.5 19.15 29.06 19.87C27.99 21.63 25.79 22.75 23.25 22.75C20.71 22.75 18.51 21.63 17.44 19.87C17 19.15 16.75 18.31 16.75 17.4C16.75 15.84 17.48 14.43 18.65 13.41C19.83 12.38 21.45 11.75 23.25 11.75C25.05 11.75 26.67 12.38 27.85 13.4C29.02 14.43 29.75 15.84 29.75 17.4Z" stroke="#5ED5A8" stroke-width="1.5" stroke-linecap="round" stroke-linejoin="round"/>
<path d="M29.75 17.4V22.4C29.75 25.52 26.84 27.75 23.25 27.75C19.66 27.75 16.75 25.52 16.75 22.4V17.4C16.75 14.28 19.66 11.75 23.25 11.75C25.05 11.75 26.67 12.38 27.85 13.4C29.02 14.43 29.75 15.84 29.75 17.4Z" stroke="#5ED5A8" stroke-width="1.5" stroke-linecap="round" stroke-linejoin="round"/>
</g>
<defs>
<filter id="filter0_d_858_6652" x="0" y="0" width="46.5" height="53.5" filterUnits="userSpaceOnUse" color-interpolation-filters="sRGB">
<feFlood flood-opacity="0" result="BackgroundImageFix"/>
<feColorMatrix in="SourceAlpha" type="matrix" values="0 0 0 0 0 0 0 0 0 0 0 0 0 0 0 0 0 0 127 0" result="hardAlpha"/>
<feOffset dy="5"/>
<feGaussianBlur stdDeviation="8"/>
<feComposite in2="hardAlpha" operator="out"/>
<feColorMatrix type="matrix" values="0 0 0 0 0.368627 0 0 0 0 0.835294 0 0 0 0 0.658824 0 0 0 0.25 0"/>
<feBlend mode="normal" in2="BackgroundImageFix" result="effect1_dropShadow_858_6652"/>
<feBlend mode="normal" in="SourceGraphic" in2="effect1_dropShadow_858_6652" result="shape"/>
</filter>
</defs>
</svg>
