<svg width="182" height="142" viewBox="0 0 182 142" fill="none" xmlns="http://www.w3.org/2000/svg">
<path opacity="0.1" d="M16.6667 17.3333H51.7778V12C51.7778 5.33333 57.1111 0 63.7778 0H118.222C124.889 0 130.222 5.33333 130.222 12V17.3333H165.333C174.444 17.3333 182 24.8889 182 34V124.667C182 133.778 174.444 141.333 165.333 141.333H16.6667C7.55556 141.333 0 133.778 0 124.667V34C0 24.6667 7.55556 17.3333 16.6667 17.3333Z" fill="#5ED5A8"/>
<path opacity="0.1" d="M116.217 54.2206C109.773 47.7761 100.884 43.9984 91.1061 43.9984C81.3283 43.9984 72.4395 47.9984 65.995 54.4428C59.5506 60.8873 55.5506 69.7761 55.5506 79.5539C55.5506 89.3317 59.5506 98.2206 65.995 104.665C72.4395 111.109 81.3283 115.109 91.1061 115.109C100.884 115.109 109.773 111.109 116.217 104.665C122.662 98.2206 126.662 89.3317 126.662 79.5539C126.439 69.5539 122.439 60.665 116.217 54.2206ZM91.1061 34.665C103.328 34.665 114.662 39.5539 122.662 47.7761C130.662 55.7761 135.773 67.1095 135.773 79.3317C135.773 91.5539 130.884 102.887 122.662 110.887C114.662 118.887 103.328 123.998 91.1061 123.998C78.8839 123.998 67.5506 119.109 59.5506 110.887C51.5506 102.887 46.4395 91.5539 46.4395 79.3317C46.4395 67.1095 51.3283 55.7761 59.5506 47.7761C67.5506 39.5539 78.8839 34.665 91.1061 34.665Z" fill="#00B594"/>
<path opacity="0.1" d="M156 51.9985C160.909 51.9985 164.889 48.0188 164.889 43.1096C164.889 38.2004 160.909 34.2207 156 34.2207C151.091 34.2207 147.111 38.2004 147.111 43.1096C147.111 48.0188 151.091 51.9985 156 51.9985Z" fill="#5ED5A8"/>
<path opacity="0.1" d="M91.1085 103.776C104.609 103.776 115.553 92.8314 115.553 79.3311C115.553 65.8309 104.609 54.8867 91.1085 54.8867C77.6082 54.8867 66.6641 65.8309 66.6641 79.3311C66.6641 92.8314 77.6082 103.776 91.1085 103.776Z" fill="#5ED5A8"/>
</svg>
